<?xml version="1.0" encoding="UTF-8"?>
<svg version="1.1" viewBox="0 0 1600 400" xmlns="http://www.w3.org/2000/svg">
<path transform="translate(1025 128)" d="m0 0c1.19-0.0161 2.38-0.0322 3.61-0.0488 17.5-0.00957 30.1 5.17 42.5 17.4 0.486 0.606 0.972 1.21 1.47 1.84 1.52 1.44 1.52 1.44 3.85 0.896 2.76-0.755 4.65-1.73 7.05-3.28 0.815-0.513 1.63-1.03 2.47-1.56 0.857-0.544 1.71-1.09 2.6-1.65 14.3-8.81 28.4-13.7 45.3-13.6 1.44 0.00846 1.44 0.00846 2.91 0.0171 12.8 0.217 27 2.13 36.6 11.5 1.2 1.4 2.36 2.82 3.46 4.29 0.431 0.508 0.861 1.02 1.3 1.54h2l0.688 2.06c1.09 2.45 2.11 4.14 3.69 6.25 9.53 13 11.6 27.8 12.2 43.6 0.0773 1.73 0.0773 1.73 0.156 3.49 0.0438 1.09 0.0877 2.19 0.133 3.31 0.0611 1.5 0.0611 1.5 0.124 3.02-0.0376 2.3-0.0376 2.3-1.04 3.3h1c0.0233 14.7 0.041 29.4 0.0518 44.1 0.00516 6.83 0.0122 13.7 0.0236 20.5 0.011 6.59 0.0168 13.2 0.0194 19.8 0.00185 2.52 0.00548 5.04 0.0109 7.56 0.00721 3.52 0.00826 7.03 0.0078 10.5 0.0036 1.05 0.00719 2.11 0.0109 3.19-0.00137 0.952-0.00275 1.9-0.00417 2.89 0.00138 1.25 0.00138 1.25 0.00279 2.52-0.123 1.89-0.123 1.89-1.12 2.89-1.68 0.0988-3.37 0.128-5.05 0.129-1.62 0.00473-1.62 0.00473-3.27 0.00955-1.17-0.00202-2.35-0.00405-3.55-0.00613-1.19 9.57e-4 -2.39 0.00191-3.62 0.0029-2.53 6.82e-4 -5.06-0.00117-7.6-0.00534-3.89-0.00535-7.78-5.58e-5 -11.7 0.00635-2.45-6.61e-4 -4.91-0.00194-7.36-0.00391-1.17 0.00202-2.35 0.00405-3.55 0.00613-1.08-0.00315-2.16-0.0063-3.27-0.00955-0.954-7.96e-4 -1.91-0.00159-2.89-0.00241-2.16-0.127-2.16-0.127-3.16-1.13-0.125-2.68-0.186-5.33-0.205-8.01-0.0099-0.839-0.0198-1.68-0.03-2.54-0.0317-2.79-0.0564-5.57-0.0811-8.36-0.0206-1.93-0.0416-3.85-0.063-5.78-0.0553-5.08-0.105-10.2-0.153-15.2-0.0502-5.18-0.106-10.4-0.161-15.5-0.108-10.2-0.209-20.3-0.307-30.5h-1c-0.0251-0.73-0.0501-1.46-0.0759-2.21-0.117-3.37-0.239-6.73-0.362-10.1-0.0393-1.15-0.0786-2.3-0.119-3.48-0.135-14.2-0.135-14.2-3.88-27.6-0.432-0.968-0.864-1.94-1.31-2.93-0.414-0.868-0.828-1.74-1.25-2.63-0.349-0.753-0.699-1.51-1.06-2.28-1.3-2.37-2.42-2.72-4.94-3.72-1.13-0.516-2.27-1.03-3.44-1.56-8.16-2.96-17.1-3.44-25.3-0.523-5.33 2.53-10.2 6-13.3 11.1-0.521 3.37-0.521 3.37-0.547 7.14-0.0203 0.68-0.0406 1.36-0.0616 2.06-0.0401 1.43-0.0733 2.86-0.1 4.29-0.0416 2.2-0.104 4.4-0.17 6.6-0.152 5.46-0.152 5.46-0.121 10.9l1 1c0.101 3.1 0.136 6.18 0.129 9.28 0.00263 1.46 0.00263 1.46 0.00531 2.95 0.00442 3.24 0.00148 6.47-0.00189 9.71 6.73e-4 2.24 0.00164 4.48 0.0029 6.71 0.00148 4.7-6.78e-4 9.4-0.00534 14.1-0.0057 6.04-0.00242 12.1 0.00357 18.1 0.0036 4.62 0.00247 9.25-1.28e-4 13.9-6.69e-4 2.23 1.6e-4 4.45 0.00248 6.68 0.00253 3.11-0.00131 6.21-0.0069 9.32 0.00202 0.93 0.00405 1.86 0.00613 2.82-0.0213 6.35-0.0213 6.35-1.14 7.46-1.69 0.0935-3.38 0.117-5.07 0.114-1.08-7.55e-5 -2.16-1.51e-4 -3.28-2.29e-4 -1.76-0.00774-1.76-0.00774-3.56-0.0156-1.2-0.00141-2.39-0.00283-3.63-0.00429-3.84-0.00562-7.68-0.0182-11.5-0.0309-2.6-0.00501-5.19-0.00958-7.79-0.0137-6.38-0.0111-12.8-0.0278-19.1-0.0488v-4h-2c-0.264-11.4-0.525-22.8-0.782-34.2-0.119-5.3-0.24-10.6-0.363-15.9-0.142-6.12-0.281-12.2-0.417-18.4-0.0225-0.995-0.045-1.99-0.0681-3.02-0.285-12.8-0.504-25.6-0.245-38.4 0.105-8.44-0.216-17-5.12-24.2v-3l-4-2v-2h-2l-1-2c-11.7-2.06-23.3-1.23-33.3 5.66-2.46 1.94-4.57 4.03-6.69 6.34l-1 1c-1.25 7.4-1.14 14.9-1.11 22.4-1.46e-4 1.2-2.92e-4 2.4-4.43e-4 3.64 5.73e-4 3.26 0.00555 6.52 0.0126 9.79 0.00629 3.42 0.00684 6.84 0.00803 10.3 0.0031 6.46 0.0113 12.9 0.0213 19.4 0.0112 7.36 0.0167 14.7 0.0217 22.1 0.0104 15.1 0.028 30.3 0.0503 45.4-2.95 0.982-4.9 1.14-7.97 1.16-1.01 0.00961-2.02 0.0192-3.06 0.0291-1.64 0.00637-1.64 0.00637-3.31 0.0129-1.12 0.0057-2.24 0.0114-3.4 0.0173-2.37 0.00945-4.74 0.016-7.11 0.0198-3.63 0.00973-7.27 0.0408-10.9 0.0723-2.3 0.00653-4.6 0.0118-6.9 0.0156-1.09 0.0123-2.18 0.0247-3.31 0.0374-1.01-3e-3 -2.02-6e-3 -3.06-0.00909-0.89 0.00365-1.78 0.00729-2.7 0.011-2.28-0.367-2.28-0.367-3.9-1.43-2.09-2.94-1.79-5.91-1.75-9.39-0.00327-0.765-0.00654-1.53-0.00991-2.32-0.0073-2.57 0.0069-5.14 0.021-7.71-7.91e-4 -1.84-0.00289-3.68-0.0062-5.52-0.00514-5 0.00842-10 0.0255-15 0.015-5.23 0.0139-10.5 0.0147-15.7 0.00369-8.78 0.0187-17.6 0.0412-26.3 0.0289-11.3 0.0392-22.6 0.0437-33.8 0.00398-9.68 0.0165-19.4 0.0303-29 0.0041-3.12 0.00703-6.24 0.0098-9.36 0.00488-4.89 0.0151-9.79 0.0294-14.7 0.00453-1.8 0.00736-3.6 0.00841-5.4 0.00174-2.45 0.0096-4.9 0.0191-7.35-8.66e-4 -0.72-0.00173-1.44-0.00263-2.18 0.0289-4.91 0.0289-4.91 1.14-7.14h57c0.754 4.52 1.09 7.07 0.562 11.4-0.102 0.874-0.204 1.75-0.309 2.65-0.0838 0.652-0.168 1.3-0.254 1.98 4.14-2.74 8.2-5.56 12.2-8.44 13.4-9.35 24.3-11.9 40.6-11.9zm-54.9 7.31 1 3zm220 33 1 2zm-51 46 1 4zm-113 8v7h1v-7h-1zm114 11 1 2zm-113 29v15h1v-15h-1zm1 53 1 4z" fill="#000102"/>
<path transform="translate(596,54)" d="m0 0c1.52 0.0189 1.52 0.0189 3.08 0.0381 30.3 0.469 59.3 8.18 82.9 28l1 2c-0.677 1.83-0.677 1.83-1.81 4.08-0.421 0.841-0.841 1.68-1.27 2.55-0.697 1.36-0.697 1.36-1.41 2.75-0.468 0.929-0.935 1.86-1.42 2.82-1.5 2.98-3.01 5.95-4.52 8.93-1.02 2.01-2.03 4.03-3.05 6.04-2.5 4.95-5 9.89-7.51 14.8-7.13-1.39-13.8-3.88-20.5-6.5-9.95-3.82-20-6.71-30.3-9.03-1.74-0.388-3.47-0.802-5.2-1.22-6.92-1.46-13.9-1.52-21-1.62-1.01-0.0262-2.01-0.0524-3.05-0.0793-9.39-0.0207-18.5 2.09-25.5 8.77-4.32 5.07-6.41 10.5-6.05 17.2 1.56 6.39 6.41 10 11.6 13.6 14.7 8.85 32.2 12.8 48.5 17.7 1.44 0.432 2.88 0.864 4.33 1.3 0.712 0.213 1.42 0.426 2.16 0.646 10.9 3.26 21.6 6.75 32 11.3 1.11 0.477 2.21 0.954 3.35 1.45 16.4 7.58 25.9 19.2 32.6 35.6 0.32 0.749 0.639 1.5 0.969 2.27 7.11 18.6 5.66 44.7-1.72 62.9-8.72 19.5-22.2 33.1-42.1 40.8-17.6 5.95-34.7 7.45-53.1 7.37-0.904-0.00216-1.81-0.00431-2.74-0.00653-25-0.0956-49-3.02-72.3-12.7-2.11-0.821-2.11-0.821-4.93 0.434v4c-3-1-3-1-5-3-0.0619-0.95-0.124-1.9-0.188-2.88-0.524-3.42-0.524-3.42-3.88-5.21-1.3-0.635-2.62-1.25-3.94-1.85-6.28-3.07-11.7-6.46-17-11.1 0.545-1.14 1.09-2.28 1.65-3.45 0.762-1.6 1.52-3.2 2.29-4.8 0.605-1.27 0.605-1.27 1.22-2.57 2.14-4.52 4.24-9.05 6.27-13.6 0.39-0.879 0.78-1.76 1.18-2.67 0.742-1.68 1.48-3.36 2.21-5.05 2.32-5.25 5.01-10.1 8.18-14.9 5.87 0.536 10.5 2.97 15.7 5.5 21.8 10.2 44.1 17.6 68.2 17.9 0.948 0.0143 1.9 0.0285 2.87 0.0432 11.8-0.0841 21-3.7 29.7-11.7 2.14-3.84 2.31-7.36 2.5-11.7l0.312-3.62c-0.525-5.67-3.03-9.06-6.88-13-13.1-9.96-32.1-13.4-47.8-17.3-59.4-15-59.4-15-75.7-40.1-4.37-8.15-6.8-16.3-8.46-25.3-0.269-2.58-0.269-2.58-1.54-3.67-0.129-2.64-0.19-5.24-0.188-7.88 8.06e-5 -0.769 1.61e-4 -1.54 2.44e-4 -2.33 0.0749-7.53 1.34-14.5 3.19-21.8h2v-5h2c0.0967-0.682 0.193-1.36 0.293-2.07 0.858-3.56 2.36-6.63 4.02-9.87 0.296-0.595 0.592-1.19 0.896-1.8 3.91-7.72 8.21-12.8 14.8-18.3 1.08-0.961 1.08-0.961 2.18-1.94 24.4-21 55.4-21.5 85.8-21.1zm-47 69 1 2zm-1 2v10h1v-10h-1zm74 121 1 3z" fill="#000102"/>
<path transform="translate(215,19)" d="m0 0c1.26 4.86 1.14 9.63 1.13 14.6 0.00263 1.44 0.00263 1.44 0.00531 2.91 0.00439 3.17 0.00149 6.34-0.00189 9.52 6.74e-4 2.21 0.00164 4.41 0.0029 6.62 0.00147 4.62-6.67e-4 9.24-0.00534 13.9-0.0057 5.93-0.00241 11.9 0.00357 17.8 0.00361 4.55 0.00247 9.1-1.28e-4 13.7-6.68e-4 2.19 1.55e-4 4.37 0.00248 6.56 0.00253 3.05-0.00132 6.1-0.0069 9.15 0.00202 0.907 0.00405 1.81 0.00613 2.75-0.00282 0.83-0.00564 1.66-0.00854 2.51-5.66e-4 1.08-5.66e-4 1.08-0.00114 2.18-0.126 1.9-0.126 1.9-1.13 4.9-0.92 0.159-1.84 0.317-2.79 0.48-21.5 3.97-42 12.7-55.4 30.7-5.91 9.43-10.5 19.9-12.8 30.8-0.227 0.969-0.454 1.94-0.688 2.94-1.85 18.1 0.804 37.1 11.2 52.4 1.7 1.86 3.28 2.58 5.53 3.67 1.32 1.45 1.32 1.45 2.56 3.12 12.8 15.4 33.4 21.9 52.4 24.9 1 3 1 3 1 5 0.00366 2.02 0.00733 4.05 0.0111 6.07 0.0185 10 0.0316 20.1 0.0407 30.1 0.00522 5.56 0.0123 11.1 0.0236 16.7 0.0109 5.37 0.0168 10.7 0.0194 16.1 0.00184 2.05 0.00545 4.09 0.0109 6.14 0.00728 2.87 0.00826 5.73 0.0078 8.6 0.0036 0.841 0.00719 1.68 0.0109 2.55-0.022 12.6-0.022 12.6-2.12 14.8-1.47 0.0992-2.94 0.131-4.41 0.133-0.908 0.00129-1.82 0.00258-2.75 0.00391-1.44-0.0058-1.44-0.0058-2.9-0.0117-1.4 0.0058-1.4 0.0058-2.82 0.0117-5.47-0.00768-10.7-0.334-16.1-1.14-1.03-3.36-1.07-6.37-1-9.88 0.0407-4.19-0.196-8.01-1-12.1-0.0362-1.67-0.049-3.33 0-5l-2-1c-0.268-0.701-0.536-1.4-0.812-2.12-3.34-8.09-8.5-12.5-16.5-15.8-9.32-3.25-19.3-3.52-28.3 0.637-7.83 4.32-14.7 8.95-18.4 17.3-8.18-3.87-15-9.71-21.6-15.8-2.15-1.98-4.34-3.87-6.57-5.75-6.2-5.43-11.2-11.8-16.2-18.3-0.45-0.572-0.899-1.14-1.36-1.73-3.2-4.16-3.2-4.16-3.2-6.39h-2c1.26-3.78 2.39-4.02 5.81-5.88 3.99-2.31 6.66-4.19 9.19-8.12 0.431-0.655 0.861-1.31 1.3-1.98 3.73-5.77 4.86-9.92 4.82-16.8 0.00387-0.699 0.00773-1.4 0.0117-2.12-0.0185-9.89-2.39-17.1-8.14-25.1-7.2-7.16-16.3-9.91-26.2-10.2-5.06 0.0431-9.84 1.04-14.8 2.19-2.9-6.5-3.42-11.8-3.33-18.9 0.00187-1.03 0.00375-2.06 0.00568-3.12 0.00669-2.17 0.0206-4.33 0.0412-6.5 0.0311-3.28 0.041-6.57 0.0469-9.85 0.00918-2.12 0.0196-4.23 0.0312-6.35 0.00425-0.968 0.0085-1.94 0.0129-2.93 0.0491-4.78 0.2-9.55 0.515-14.3 0.0562-0.873 0.112-1.75 0.17-2.64 0.585-2.78 1.66-4.27 3.5-6.4 0.526 0.157 1.05 0.315 1.59 0.477 10.1 2.2 19.5 0.622 28.4-4.48 7.28-4.74 11.9-11.7 14.6-20 1.53-8.81 1-18.7-3.71-26.4-0.639-0.866-1.28-1.73-1.94-2.62l-1-3c-1.8-1.63-3.66-3.18-5.56-4.69-1.01-0.808-2.02-1.62-3.07-2.45-0.782-0.615-1.56-1.23-2.37-1.86 4.9-10.4 12.9-18.9 21-27 0.639-0.825 1.28-1.65 1.94-2.5 2.46-2.99 4.98-5.16 8.06-7.5h2v-2c1.65-1.03 3.32-2.02 5-3 0.454-0.474 0.908-0.949 1.38-1.44 2.54-2.44 5.54-3.88 8.62-5.56 1.01 1.45 2 2.91 3 4.38 0.557 0.812 1.11 1.62 1.69 2.46 1.31 2.16 1.31 2.16 1.31 4.16l4 1v2c0.715 0.276 1.43 0.552 2.17 0.836 2.83 1.16 2.83 1.16 5.38 2.45 9.05 4.38 18.4 5.52 28.2 3.01 6.25-2.56 12.5-6.66 16.3-12.3h2c0.268-0.681 0.536-1.36 0.812-2.06 1.19-2.94 1.19-2.94 2.75-6 3.04-7.06 2.95-15.5 1.44-22.9l-0.562-2.94-0.438-2.06c4.76-1.78 9.24-2.58 14.2-3.12 1.12-0.127 1.12-0.127 2.26-0.257 5.52-0.595 10.9-0.794 16.5-0.618zm-179 207 1 2zm148 133 1 2z" fill="#F7573E"/>
<path transform="translate(1560 145)" d="m0 0c20.6 19.6 20.4 52 21.3 78.4 0.157 7.76 0.118 15.5 0.0977 23.3-0.00187 2.17-0.00329 4.34-0.00429 6.51-0.00377 5.64-0.0136 11.3-0.0247 16.9-0.0122 6.81-0.0166 13.6-0.0225 20.4-0.00962 10.3-0.0288 20.6-0.0462 30.8h-50c-2.12-4.25-2.24-7.17-2.12-11.8 0.00902-0.697 0.018-1.39 0.0273-2.11 0.0235-1.71 0.0593-3.42 0.0977-5.14-7.88 3.86-7.88 3.86-15.6 8-21.4 12-46.9 17.5-71.2 11.4-14.1-4.24-25.1-10.8-32.6-23.8-7.94-15.8-8.76-34.7-3.56-51.6 6.66-17.5 17.6-27.6 34.2-35.8 21.2-9 43.9-10.6 66.6-11.6 0.774-0.0367 1.55-0.0733 2.35-0.111 1.47-0.0685 2.94-0.133 4.41-0.193 3.01-0.139 5.46-0.382 8.34-1.34 1.07-3.6 1.45-5.77 0.152-9.33-2.82-4.97-5.57-7.27-11-9.17-5.06-1.37-9.96-2.29-15.2-2.5-0.808-0.0516-1.62-0.103-2.45-0.156-20-0.686-40.7 3.79-58.6 12.7-0.722 0.347-1.44 0.694-2.19 1.05-0.638 0.32-1.28 0.64-1.93 0.97-1.87 0.444-1.87 0.444-3.95-0.279-3.12-2.07-5.08-5.08-7.23-8.09-0.481-0.665-0.961-1.33-1.46-2.01-11.2-15.8-11.2-15.8-11.2-23.2l4-2v-2c3.15-2.28 6.63-4.07 10-6 1.05-0.647 2.1-1.29 3.18-1.96 36.1-21.8 101-28.6 136-0.477zm-99.4 103c-1.45 1.4-1.45 1.4-1.24 3.47-0.99 0.33-1.98 0.66-3 1 0.133 11.3 0.133 11.3 5.62 20.6 12.7 7.35 25 8 39.2 4.37 8.18-2.33 15.6-6.2 23.2-9.99l1-29c-4.98-0.0697-9.95-0.129-14.9-0.165-1.69-0.0149-3.37-0.0352-5.06-0.0615-23.9-0.406-23.9-0.406-44.8 9.76zm-5.24 8.47v7h1v-7h-1z" fill="#000102"/>
<path transform="translate(865 145)" d="m0 0c17.3 16.4 19.8 42.1 20.5 64.7 0.163 11.4 0.163 11.4-1.21 15.8h2v96h-52v-10c-0.127-1.71-0.28-3.42-0.5-5.12l-0.5-3.88c-0.62 0.34-1.24 0.681-1.88 1.03-1.91 1.04-3.82 2.08-5.73 3.12-2.32 1.27-4.63 2.55-6.93 3.85-21.4 12-47 17.5-71.3 11.4-13-3.91-24.3-9.92-31.6-21.9l-1.62-3.5c-0.518-1.1-0.518-1.1-1.05-2.23-7.18-16.4-6.36-35.5-0.203-52.1 7.7-17.1 20.4-26.5 37.4-33.4 19.9-7.44 41-8.71 62-9.64 0.762-0.0342 1.52-0.0684 2.31-0.104 1.44-0.0628 2.88-0.121 4.32-0.175 2.98-0.126 5.37-0.367 8.22-1.32 1.05-4.37 1.42-6.27-0.875-10.2-0.701-0.908-1.4-1.82-2.12-2.75l-1-3c-12.7-7.09-30.9-5.72-44.8-3.75-0.958 0.136-1.92 0.273-2.9 0.413-12.6 1.88-23.9 5.17-35.4 10.9-0.722 0.347-1.44 0.694-2.19 1.05-0.638 0.32-1.28 0.64-1.93 0.97-1.87 0.444-1.87 0.444-3.95-0.279-3.12-2.07-5.08-5.08-7.23-8.09-0.48-0.666-0.96-1.33-1.45-2.02-11.2-15.8-11.2-15.8-11.3-21.7 1.51-3.5 4.05-5.18 7.11-7.25 0.622-0.43 1.24-0.86 1.88-1.3 37.3-25.1 106-35.8 144-5.32zm-97.7 101c-0.678 1.33-1.35 2.66-2 4-0.99 0.33-1.98 0.66-3 1-1.78 6.14-1 13.3 2 19l2 1 2 2c1.6 0.896 3.23 1.75 4.88 2.56 0.864 0.434 1.73 0.869 2.62 1.32 11.3 5.07 25.2 2.16 36.5-1.88 9.64-3.5 9.64-3.5 18-9 0.0877-2.07 0.107-4.15 0.0977-6.22-0.00322-1.26-0.00645-2.52-0.00977-3.82-0.00836-1.34-0.0168-2.68-0.0254-4.02-0.00501-1.34-0.00958-2.69-0.0137-4.03-0.0118-3.3-0.0283-6.6-0.0488-9.9-4.98-0.0754-9.95-0.129-14.9-0.165-1.69-0.0149-3.37-0.0352-5.06-0.0615-22.6-0.44-22.6-0.44-43 8.23zm-7 10v8h1v-8h-1z" fill="#000102"/>
<path transform="translate(1226,133)" d="m0 0h148c0 33 0 33-3 37-8.84 11.9-17.5 23.9-26 36-1.12 1.6-2.24 3.2-3.37 4.8-4.73 6.75-9.46 13.5-14.2 20.3-7.71 11.1-15.5 22-23.5 32.9-0.863 1.19-1.73 2.38-2.59 3.57-1.8 2.48-3.6 4.96-5.41 7.43 5 0.812 9.86 1.16 14.9 1.19 0.759 0.00829 1.52 0.0166 2.3 0.0251 1.63 0.0173 3.27 0.0325 4.9 0.0458 2.58 0.0212 5.17 0.0482 7.75 0.0767 6.41 0.0696 12.8 0.129 19.2 0.189 5.43 0.0509 10.9 0.106 16.3 0.166 2.55 0.0266 5.1 0.0474 7.65 0.068 1.55 0.0166 3.11 0.0335 4.66 0.0507 1.07 0.00628 1.07 0.00628 2.16 0.0127 4.89 0.0629 4.89 0.0629 7.12 1.18v10h-1l-1 36h-158c-3-9.01-3.59-25.2 0.398-33.9 2-2.95 4.18-5.46 6.6-8.07 1.81-2.35 3.52-4.77 5.25-7.19 0.938-1.27 1.88-2.55 2.82-3.82 3.07-4.17 6.07-8.39 9.05-12.6 0.759-1.08 0.759-1.08 1.53-2.18 2.24-3.19 4.47-6.38 6.68-9.6 4.63-6.77 9.42-13.4 14.4-19.9 2.98-3.92 5.66-7.91 8.16-12.2 1.09-1.58 1.09-1.58 3.09-2.58 1.03-1.65 2.02-3.32 3-5 1.17-1.66 2.36-3.3 3.56-4.94 3.32-4.52 6.61-9.06 9.88-13.6 0.437-0.608 0.874-1.22 1.32-1.84 2.3-3.19 2.3-3.19 4.24-6.6-25.4-0.33-50.8-0.66-77-1-1.58-3.17-1.14-6.57-1.13-10-9.57e-4 -0.802-0.00191-1.6-0.0029-2.43-6.81e-4 -1.7 0.00117-3.4 0.00534-5.1 0.00531-2.59 7.17e-5 -5.17-0.00635-7.76 6.61e-4 -1.65 0.00194-3.31 0.00391-4.96-0.00202-0.767-0.00405-1.53-0.00613-2.32 0.00315-0.734 0.0063-1.47 0.00955-2.22 7.96e-4 -0.636 0.00159-1.27 0.00241-1.93 0.176-3.1 0.689-6.16 1.13-9.23z" fill="#000102"/>
<path transform="translate(277 24.7)" d="m0 0c1.83 2.03 3.53 4.11 5.2 6.27 0.477 0.558 0.954 1.12 1.45 1.69 3.93 4.88 5.21 10.3 6.55 16.3 3.12-0.553 5.79-1.31 8.69-2.56 9.62-3.26 22.5-2.95 31.8 1.11 12.3 7.11 21.9 18.2 26.3 31.8 2.6 10.9 1.53 22.6 0.25 33.7 1.12 0.543 2.24 1.09 3.39 1.64 1.47 0.722 2.95 1.45 4.42 2.17 0.738 0.356 1.48 0.713 2.24 1.08 0.712 0.351 1.42 0.703 2.16 1.06 0.982 0.479 0.982 0.479 1.98 0.968 1.94 1.15 3.28 2.43 4.81 4.07 0.517 0.483 1.03 0.967 1.57 1.46 7.89 8.45 11.9 24 11.6 35.3-0.438 4.97-1.8 9.76-3.07 14.6-0.423 2.77-0.423 2.77 1.5 4.75l2.38 1.94c6.3 6.15 10.9 12.3 13 21l1.44 3.19c5.92 13.6 4.67 30.5-0.625 44.2-2.52 5.54-5.89 10-9.81 14.6-0.523 0.742-1.05 1.48-1.59 2.25-0.467 0.578-0.933 1.16-1.41 1.75h-2c0.532 5.21 1.91 9.22 4 14 2.77 13.3 1.42 25.2-5.81 36.8-7.51 10.5-17.3 17.1-30.2 19.2-6.56 0.43-12.6-0.679-19-2l-0.625 3.88c-2.07 9.37-8.32 18.5-16.3 23.8-9.53 5.74-17.6 6.8-28.4 5.06-5.91-1.04-5.91-1.04-11.4 0.844-1.94 2.06-3.6 4.2-5.29 6.47-8.48 5.37-20.2 5.09-29.9 3.25-8.38-2.19-13.4-8.11-18-15.1-1.12-2.19-1.12-2.19-1.12-4.19h-2c-1.17-3.52-1.15-6.68-1.15-10.3-0.00336-0.745-0.00672-1.49-0.0102-2.26-0.00951-2.47-0.0115-4.94-0.0125-7.4-0.00321-1.72-0.00658-3.44-0.0101-5.16-0.00599-3.61-0.00784-7.22-0.00725-10.8 1.01e-4 -4.61-0.0135-9.21-0.0308-13.8-0.0112-3.56-0.0131-7.12-0.0126-10.7-0.00117-1.7-0.00556-3.39-0.0133-5.09-0.0926-22.3-0.0926-22.3 5.24-31.2 2.91-4.9 2.91-4.9 5-10.2-1.52-4.64-1.52-4.64-4.48-8.42-5.02-5.21-5.81-13.3-6.14-20.3-0.0384-0.736-0.0768-1.47-0.116-2.23-0.417-8.9-0.344-17.8-0.25-26.7 0.0168-1.83 0.0334-3.66 0.05-5.49 0.0361-3.8 0.0773-7.61 0.121-11.4 0.0552-4.84 0.0917-9.68 0.124-14.5 0.028-3.77 0.0691-7.53 0.114-11.3 0.019-1.78 0.0334-3.57 0.0428-5.35 0.142-24.5 0.142-24.5 6.85-33.7 1.72-2.21 1.72-2.21 2.69-4.56-0.599-2.57-0.599-2.57-2-5-0.402-0.767-0.804-1.53-1.22-2.32-0.849-1.57-1.7-3.13-2.56-4.69-3.68-9.03-3.56-18.5-3.53-28.1 0.00316-2.33-0.0204-4.65-0.0457-6.98-0.044-10.1 0.116-20.4 6.36-28.9 0.495-0.69 0.99-1.38 1.5-2.09 0.495-0.651 0.99-1.3 1.5-1.97 0.438-0.678 0.877-1.36 1.33-2.05 4.09-4.76 11.2-7.27 17.1-8.88 19.1-0.336 19.1-0.336 25.4 5.67zm-35.9 9.58c-6.37 5.74-8.43 14.9-9.19 23.2-0.152 3.77-0.198 7.52-0.178 11.3 0.00276 0.662 0.00552 1.32 0.00836 2 0.0871 11.3 0.263 21.8 7.7 31 6.95 6.77 16 12.3 25.9 12.6 8.39-0.124 15.6-3.37 21.8-8.95 1.36-1.33 1.36-1.33 1.14-3.37h2c0.628-1.23 1.25-2.46 1.88-3.69 0.522-1.03 0.522-1.03 1.05-2.07 2.33-4.87 3.49-9.16 4.2-14.6 0.168-1.25 0.335-2.51 0.508-3.8 0.182-1.43 0.182-1.43 0.367-2.89 2.92 1.07 4.78 1.78 7 4 0.923 6.92-1.5 13.6-4 20-0.561 0.708-1.12 1.42-1.7 2.14-1.52 1.76-1.52 1.76-1.16 3.88 0.94 2.17 2.08 3.74 3.54 5.6 4.85 6.97 6.87 15.3 9.31 23.4 9.4 0.745 16.2-1.36 23.8-7.12 7.83-6.81 11.6-12.9 14.2-22.9 0.196-0.637 0.392-1.27 0.594-1.93 2.32-11.8-2.63-25-8.89-34.8-4.62-6.12-11.1-11.7-18.7-13.3-13.5-1.27-23-0.0719-33.6 8.62-1.96 1.63-1.96 1.63-3.38 3.38v3c-2.33 1.21-4.5 2.17-7 3l-2-2c0.104-3.63 1.39-5.63 3.56-8.38 2.72-3.66 3.07-6.01 2.44-10.6-1.51-6.74-4.52-12.7-9-18h-2l-1-3c-10.8-2.72-19.9-2.51-29.1 4.31zm47.1 79.7v2l-2.5 0.812c-3.56 1.16-3.56 1.16-7.12 2.75-9.58 3.55-18.9 2.78-28.4-0.562-1.54-0.715-3.06-1.46-4.56-2.25l-3.44-1.75c-3.02 0.666-3.02 0.666-4.1 2.64-0.318 0.677-0.637 1.35-0.965 2.05-0.321 0.664-0.642 1.33-0.973 2.01-2.23 5.33-3.41 10.5-4.09 16.2-0.0864 0.688-0.173 1.38-0.262 2.09-0.21 1.68-0.412 3.36-0.613 5.04h2l-1 2c-0.109 2.54-0.157 5.05-0.161 7.6-0.00496 0.784-0.00993 1.57-0.015 2.38-0.0146 2.6-0.0214 5.21-0.0269 7.81-0.00575 1.81-0.0115 3.62-0.0173 5.43-0.0105 3.81-0.0164 7.61-0.0198 11.4-0.00546 4.86-0.0294 9.71-0.058 14.6-0.0187 3.75-0.0238 7.49-0.0254 11.2-0.00301 1.79-0.011 3.58-0.0242 5.37-0.252 16.9-0.252 16.9 6.96 31.8 2.31 2.25 4.22 2.96 7.39 3.35 2.42-1.27 2.42-1.27 5-3 2.97-0.837 5.97-1.44 9-2 0.381-1.77 0.381-1.77 0.77-3.58 0.347-1.56 0.695-3.11 1.04-4.67 0.166-0.777 0.331-1.55 0.502-2.36 1.75-7.75 1.75-7.75 4.69-10.4 2.76-0.528 5.16-0.186 8 0v2l-2 1c-0.379 1.66-0.703 3.33-1 5-0.334 0.902-0.668 1.8-1.01 2.73-1.09 3.59-1.29 6.59-1.3 10.3-0.0168 1.19-0.0335 2.37-0.0508 3.6 0.392 3.6 1.17 5.48 3.36 8.34l2.31 0.875c3.99 1.67 6.08 4.77 8.69 8.12l-2-1 1 5c-1.56 0.75-1.56 0.75-4 1-7.91-3.19-13.5-10.3-17-18-9.47 1.6-17.1 6.47-23 14-6.9 11-7.3 21.7-7.27 34.4-0.00135 1.59-0.00329 3.18-0.0058 4.77-0.00294 3.32 0.0013 6.64 0.0107 9.96 0.0114 4.25 0.00481 8.5-0.00714 12.8-0.00723 3.28-0.00492 6.56 2.56e-4 9.84 0.00133 1.57-2.91e-4 3.13-0.00496 4.7-0.00509 2.19 0.00268 4.38 0.0138 6.57 0.00159 1.24 0.00318 2.49 0.00482 3.77 0.323 4.18 1.13 7.07 3.99 10.2 10.5 8.87 10.5 8.87 23.7 11 7.44-1.11 12.7-4.17 17.3-10.1 4.46-6.34 5.68-13.3 7.24-20.8l5 1v3l0.562 2.81c0.459 3.34 0.141 5.9-0.562 9.19 5.97 3.76 15 2.82 21.7 1.45 7.57-2.84 14-9.88 17.4-17.1 3.07-10.4 1.53-22.6-3.06-32.3-3.89-5.76-8.52-10.4-15-13-3.23 1.13-5.08 2.91-7.25 5.5-0.521 0.608-1.04 1.22-1.58 1.84-1.36 1.59-1.36 1.59-1.17 3.66l-10 3c-3-4-3-4-3-6l1.62-0.688c6.25-3.45 10.2-7.49 12.4-14.3 1.1-6.23-0.476-11-3.12-16.6-0.992-2.67-1.25-4.53-0.875-7.36 3.23-2.15 4.28-2.2 8-2 0.731 1.98 1.39 3.98 2 6l-1 2c0.303 0.745 0.606 1.49 0.918 2.26 1.19 3.02 1.25 5.39 1.39 8.62 0.624 4.18 1.04 5.64 4.46 8.21 2.3 1.16 4.61 2.27 6.95 3.34 5.1 2.44 8.9 5.51 11.3 10.7 0.768 2.26 1.4 4.54 2.02 6.84 0.526 1.42 1.07 2.84 1.62 4.25 1.38 3.75 1.38 3.75 1.75 6.62 0.417 2.32 0.417 2.32 2.69 3.31 0.969 0.268 1.94 0.536 2.94 0.812 1.89 0.557 1.89 0.557 3.81 1.12 8.79 2.06 16 0.797 23.8-3.57 7.92-5.12 13-11.4 15.4-20.6 0.162-2.65 0.238-5.17 0.188-7.81-0.0079-0.703-0.0158-1.41-0.0239-2.13 0.143-9.49 0.143-9.49-3.16-18.1-2.37 0.383-4.61 0.844-6.84 1.73-7.64 3.02-16.1 3.84-24 1.39-7.44-3.47-13.6-8.34-17.7-15.5-1.32-2.14-1.32-2.14-3.5-3.62-4.17-0.76-8.1-0.964-12.3-0.965-2.87-0.0274-4.99-0.152-7.68-1.04l1-7c0.785 0.0348 1.57 0.0696 2.38 0.105 8 0.206 12.5-0.531 19.3-4.79 5.64-5.64 7.12-12.6 8.31-20.3 2.31 0.33 4.62 0.66 7 1-0.169 0.572-0.338 1.14-0.512 1.73-0.501 2.32-0.458 4.15-0.301 6.52 0.0566 6.91-2.91 11.5-7.5 16.4-2.37 2.59-2.37 2.59-2.88 6.06 1.59 3.01 3.18 3.65 6.19 5.25 1.3 0.986 2.59 1.99 3.88 3 5.54 4.16 10.7 6.68 17.7 6.41 10.7-1.83 20.1-10 26.2-18.5 7.58-11.2 10.3-23.8 7.74-37.2-0.546-2.45-1.15-4.87-1.81-7.29-0.204-0.758-0.408-1.52-0.619-2.3-1.34-4.5-2.98-7.51-6.13-11.1-0.673-1.66-1.34-3.33-2-5-1.4-1.81-1.4-1.81-3-3h-2l-1-3c-10.7-8.7-23.8-9.24-37-8-2.82 1.41-2.91 3.09-4 6-0.857 1.78-1.73 3.55-2.62 5.31-0.669 1.32-0.669 1.32-1.35 2.68-0.338 0.664-0.675 1.33-1.02 2.01-1.98-0.33-3.96-0.66-6-1 0.422-2.95 0.907-4.86 2.56-7.38 1.97-3.59 1.97-5.55 1.44-9.62-1.87-4.75-4.12-8.93-7.38-12.9-1.62-2.12-1.62-2.12-1.38-4.44l0.75-1.69c3.38 0.25 3.38 0.25 7 1 1.25 2 1.25 2 2 4l3 1 1 5c4.05 1.07 6.91 0.709 11 0 9.83-0.681 18.8 1.67 28 5 3.61-9.56 3.16-21-1.04-30.3-4.57-8.73-9.81-14.9-19.1-18.5-2.64-0.67-4.24-0.812-6.91-0.188-2.82 2.23-5.13 4.7-7.55 7.36-6.84 7.39-14.1 9.71-23.7 11.8-1.24 0.284-2.49 0.567-3.77 0.859-1.11 0.246-2.21 0.492-3.36 0.746-2.87 1.03-2.87 1.03-3.96 3.9-0.398 1.57-0.398 1.57-0.805 3.17-1.31 4.6-2.56 7.64-5.88 11.2v2h-2c-2.94 1.85-2.94 1.85-5 5 0.58 3.54 0.58 3.54 1.37 6.07 0.835 3.9 0.878 7.65 0.879 11.6 0.0129 1.09 0.0129 1.09 0.0261 2.2-0.0218 4.42-0.649 8.01-2.28 12.1h-6c-1-3-1-3 0-6 0.681-11.6-0.637-21.1-7-31-5.97-6.7-12.6-9.33-21-12 0.875-4.88 0.875-4.88 2-6 7.11-0.197 13.4 1.52 19 6 0.694 1.32 1.36 2.65 2 4 4.06 3.22 4.06 3.22 9 4 6.44-7.1 9.28-15 8.99-24.4-0.0552-1.14-0.0552-1.14-0.112-2.3-0.0504-1.1-0.0504-1.1-0.102-2.22-0.327-4.48-1.21-7.37-3.77-11-0.746-1.43-1.48-2.87-2.19-4.31-0.344-0.697-0.688-1.39-1.04-2.11-0.254-0.519-0.508-1.04-0.77-1.57-2.46 0-3.85 0.855-6 2zm7 61 1 2zm10 93 1 2z" fill="#EF8E4E"/>
<path transform="translate(387,149)" d="m0 0h1c2.35 9.11 0.468 17.4-1.88 26.3-0.423 2.77-0.423 2.77 1.5 4.75l2.38 1.94c6.3 6.15 10.9 12.3 13 21l1.44 3.19c5.92 13.6 4.67 30.5-0.625 44.2-2.52 5.54-5.89 10-9.81 14.6-0.523 0.742-1.05 1.48-1.59 2.25-0.467 0.578-0.933 1.16-1.41 1.75h-2c0.532 5.21 1.91 9.22 4 14 2.77 13.3 1.42 25.2-5.81 36.8-7.51 10.5-17.3 17.1-30.2 19.2-6.56 0.43-12.6-0.679-19-2l-0.625 3.88c-2.07 9.37-8.32 18.5-16.3 23.8-9.53 5.74-17.6 6.8-28.4 5.06-5.91-1.04-5.91-1.04-11.4 0.844-1.94 2.06-3.6 4.2-5.29 6.47-8.48 5.37-20.2 5.09-29.9 3.25-8.38-2.19-13.4-8.11-18-15.1-1.12-2.19-1.12-2.19-1.12-4.19h-2c-1.01-3.03-1.12-5.04-1.11-8.21 7.55e-5 -1.06 1.51e-4 -2.12 2.29e-4 -3.21 0.00516-1.14 0.0103-2.29 0.0156-3.47 0.00141-1.17 0.00283-2.34 0.00429-3.55 0.0056-3.75 0.0182-7.5 0.0309-11.2 0.00501-2.54 0.00958-5.08 0.0137-7.62 0.011-6.23 0.0278-12.5 0.0488-18.7l2 1 2-6h1c1.2 9.01 2.03 18 2.25 27.1 0.0258 1.05 0.0258 1.05 0.0521 2.13 0.0818 3.53 0.143 7.06 0.18 10.6 0.141 7.37 0.689 13.4 3.52 20.2h2c1.02 1.22 1.99 2.48 2.94 3.75 4.23 4.95 8.74 6.97 15.1 8.25 6.19 0.389 12-1.34 17-5 4.95-4.95 7.13-10.4 9-17 0.555-1.69 1.12-3.38 1.69-5.06 0.251-0.754 0.503-1.51 0.762-2.29 0.182-0.545 0.364-1.09 0.551-1.65 4.75 0.75 4.75 0.75 7 3-0.312 1.34-0.648 2.67-1 4 0.186 0.619 0.371 1.24 0.562 1.88 0.634 3.08-0.451 5.25-1.56 8.12 7.13 2.21 16.9 2.25 23.9-0.438 6.53-3.5 12.5-9.99 14.7-17.2 1.85-11.1 1.05-23.2-5.18-32.9-3.55-4.33-7.31-7.29-12.4-9.55-3.6 1.2-4.04 2.24-6.12 5.31-3.59 4.83-7.22 6.85-12.9 8.69-3.88-2.75-3.88-2.75-5-5 2.42-2.49 4.72-4.8 7.56-6.81 3.82-3.43 5.92-7.29 6.82-12.4 0.279-5.43-1.22-9.6-3.51-14.5-0.982-2.65-1.15-4.56-0.875-7.36 1.69-1.88 1.69-1.88 4-3 2.56 0 2.56 0 5 1 1.88 2.38 1.88 2.38 3 5l-1 3c0.655 1.67 1.32 3.34 2 5 0.279 2.1 0.486 4.2 0.625 6.31 0.112 1.6 0.112 1.6 0.227 3.24 0.0735 1.21 0.0735 1.21 0.148 2.45l2.44 0.625c7.89 3.05 14.9 8.21 19.6 15.4 0.388 1.65 0.719 3.32 1 5 1.18 3.4 2.58 6.69 4 10l1.12 2.94c3.56 3.92 8.9 4.66 14 5.35 8.43 0.389 14.9-2.83 21.3-8.08 1.63-1.21 1.63-1.21 3.63-1.21 0.287-0.576 0.575-1.15 0.871-1.75 0.717-1.43 1.44-2.86 2.16-4.29 0.339-0.669 0.678-1.34 1.03-2.03 0.342-0.672 0.683-1.34 1.04-2.04 2-4.21 2.06-7.97 2.03-12.5-0.00266-0.716-0.00532-1.43-0.00806-2.17 0.184-8.86 0.184-8.86-2.12-17.2-2.37 0.383-4.61 0.844-6.84 1.73-7.64 3.02-16 3.81-24 1.42-7.39-3.41-14.6-8.74-18.3-16.1-1.02-1.85-1.02-1.85-2.94-3.06-4.14-0.653-8.1-0.82-12.3-0.832-3.32-0.15-5.07-0.233-7.71-2.17-0.875-2.44-0.875-2.44-1-5l2-3c2.57-0.188 2.57-0.188 5.69 0 6.87 0.156 10.5-0.798 16-5.12 4.46-5.54 6.57-12.1 8.31-18.9 2.31 0.33 4.62 0.66 7 1l1 3-1 1c0.0326 1.36 0.102 2.71 0.188 4.06 0.0556 7.01-2.84 11.6-7.5 16.6-2.4 2.6-2.4 2.6-2.81 6.12 1.39 2.7 2.44 2.89 5.12 4.19 1.29 0.954 2.56 1.93 3.81 2.94 5.56 4.19 10.7 6.75 17.8 6.47 10.4-1.79 19.7-9.68 25.7-18 7.58-12.2 9.82-25.2 6.7-39.2-0.407-1.62-0.827-3.24-1.26-4.85-0.204-0.758-0.408-1.52-0.619-2.3-1.34-4.53-3.03-7.44-6.13-11.1-0.334-0.846-0.668-1.69-1.01-2.56-2.63-6.48-9.56-10.6-15.7-13.4-9.37-3.34-19.5-2.43-29.3-2l-0.359 2.17c-0.664 2.93-1.61 5.37-2.89 8.08-0.397 0.871-0.794 1.74-1.2 2.64-1.55 2.11-1.55 2.11-4.03 3.03-2.52 0.0781-2.52 0.0781-5.52-1.92 0.422-2.95 0.907-4.86 2.56-7.38 1.97-3.59 1.97-5.55 1.44-9.62-1.87-4.75-4.12-8.93-7.38-12.9-1.62-2.12-1.62-2.12-1.44-4.38 0.812-1.75 0.812-1.75 1.81-2.75 3.38 0.125 3.38 0.125 7 1 1.75 2.5 1.75 2.5 3 5 0.99 0.33 1.98 0.66 3 1 0.625 1.94 0.625 1.94 1 4l1 2c0.545-0.144 1.09-0.289 1.65-0.438 12.6-3.09 23.3-0.829 35.3 3.44 0.99-3.3 1.98-6.6 3-10h1l2 8h3l-1-3-2-1 1-8h2v-8zm-82 119 1 2z" fill="#E3A24E"/>
<path transform="translate(163,255)" d="m0 0c2 0 2 0 3.36 1.32 0.543 0.556 1.09 1.11 1.64 1.68 1.42 1.01 2.85 1.99 4.31 2.94 2.61 1.7 5.19 3.41 7.75 5.19 7.17 4.57 14.1 6.89 22.3 8.95 10.1 2.55 10.1 2.55 13.7 4.93 0.291 2.95 0.388 5.7 0.356 8.65 0.00307 1.34 0.00307 1.34 0.0062 2.72 0.00302 2.97-0.0155 5.95-0.0345 8.92-0.00306 2.07-0.00493 4.13-0.00568 6.2-0.00461 4.34-0.0191 8.67-0.0412 13-0.0282 5.55-0.0392 11.1-0.0437 16.7-0.00417 4.27-0.014 8.54-0.0259 12.8-0.00569 2.05-0.0105 4.09-0.0143 6.14-0.00691 2.87-0.0206 5.73-0.0363 8.6-0.00112 0.841-0.00224 1.68-0.00339 2.55-0.0918 12.7-0.0918 12.7-2.16 14.8-1.47 0.0992-2.94 0.131-4.41 0.133-0.908 0.00129-1.82 0.00258-2.75 0.00391-1.44-0.0058-1.44-0.0058-2.9-0.0117-1.4 0.0058-1.4 0.0058-2.82 0.0117-5.47-0.00768-10.7-0.334-16.1-1.14-1.03-3.36-1.07-6.37-1-9.88 0.0407-4.19-0.196-8.01-1-12.1-0.0362-1.67-0.049-3.33 0-5l-2-1c-0.268-0.701-0.536-1.4-0.812-2.12-2.84-6.88-7.01-10.9-13.2-14.9l3-2 1-1c-0.186-0.866-0.371-1.73-0.562-2.62-0.438-3.38-0.438-3.38 0.75-6.81 1.13-3.32 1.13-3.32 0.0234-5.35-0.764-1.18-1.54-2.35-2.32-3.52-1.39-2.66-0.516-4.86 0.113-7.7-0.908-2.07-0.908-2.07-2-4-0.125-2.56-0.125-2.56 0-5v-3c-1.98-0.66-3.96-1.32-6-2l2-1c-0.351-0.763-0.701-1.53-1.06-2.31-0.938-2.69-0.938-2.69 0.0625-5.69-0.908-2.07-0.908-2.07-2-4v-2l-2 2c-1.05-3.98-0.841-6.98 0-11 0.99-0.33 1.98-0.66 3-1 1.22-2.5 1.22-2.5 2-5l-3-2 4-2-1-3zm21 104 1 2z" fill="#FA6F44"/>
<path transform="translate(83,146)" d="m0 0 1 3c-1.31 1.69-2.64 3.35-4 5v3h-2l-1 3h-2v2h-2v2l2 1v2c2.43-0.42 3.73-0.727 5.5-2.5 1.8-1.8 3.03-2.04 5.5-2.5 0.99-0.33 1.98-0.66 3-1 0.99 1.32 1.98 2.64 3 4l1-2 2-3c2.97 1.12 5.33 2.22 8 4l1-3c1.5 1.38 1.5 1.38 3 3v2h-2v2l3 1c-0.468 2.41-0.933 4.77-1.62 7.12-0.579 2.09-0.579 2.09 0.625 4.88v2c0.227 0.619 0.454 1.24 0.688 1.88l0.312 2.12-1.56 1.94c-0.474 0.681-0.949 1.36-1.44 2.06 0.753 2.59 0.753 2.59 2 5 0 3.11-0.456 5.94-1 9-1.98 0.66-3.96 1.32-6 2l-1 5h-2l-1 2c-0.495 0.598-0.99 1.2-1.5 1.81-1.67 2.11-1.67 2.11-1.94 4.75-0.562 2.44-0.562 2.44-2.44 4.19-2.12 1.25-2.12 1.25-5.12 2.25l1 2 3-2c0 3 0 3-1 6h-2l0.25 2.81c-0.25 3.19-0.25 3.19-2.06 4.94l-2.19 1.25-3 2c-0.485-0.398-0.969-0.797-1.47-1.21-8.95-7.08-18.1-9.57-29.5-8.79-3.37 0.54-6.68 1.22-10 2-2.9-6.5-3.42-11.8-3.33-18.9 0.00187-1.03 0.00375-2.06 0.00568-3.12 0.00669-2.17 0.0206-4.33 0.0412-6.5 0.0311-3.28 0.041-6.57 0.0469-9.85 0.00918-2.12 0.0196-4.23 0.0312-6.35 0.00425-0.968 0.0085-1.94 0.0129-2.93 0.0491-4.78 0.2-9.55 0.515-14.3 0.0562-0.873 0.112-1.75 0.17-2.64 0.585-2.78 1.66-4.27 3.5-6.4 0.789 0.236 0.789 0.236 1.59 0.477 10.1 2.2 19.5 0.645 28.4-4.48 5.62-3.88 8.88-8 12-14l2-1zm-47 80 1 2z" fill="#F44C3F"/>
<path transform="translate(215,19)" d="m0 0c1.26 4.86 1.14 9.63 1.13 14.6 0.00175 0.962 0.0035 1.92 0.00531 2.91 0.00439 3.17 0.00149 6.34-0.00189 9.52 6.74e-4 2.21 0.00164 4.41 0.0029 6.62 0.00147 4.62-6.67e-4 9.24-0.00534 13.9-0.0057 5.93-0.00241 11.9 0.00357 17.8 0.00361 4.55 0.00247 9.1-1.28e-4 13.7-6.68e-4 2.19 1.55e-4 4.37 0.00248 6.56 0.00253 3.05-0.00132 6.1-0.0069 9.15 0.00202 0.907 0.00405 1.81 0.00613 2.75-0.00282 0.83-0.00564 1.66-0.00854 2.51-3.77e-4 0.721-7.54e-4 1.44-0.00114 2.18-0.126 1.9-0.126 1.9-1.13 4.9-1.38 0.238-1.38 0.238-2.79 0.48-8.12 1.5-15.6 3.49-23.3 6.43-4.71 1.75-4.71 1.75-6.93 2.09-1.75-1.44-1.75-1.44-3-3l2-2v-3h2c0.1-3.51-0.231-6.58-1-10-0.333-1.67-0.667-3.33-1-5l-4-1v-3l-2-1-3-2c-0.99-0.33-1.98-0.66-3-1v-3l-2 1-1-7 5-2-5-1-3-9 3-2v-4l-4 2c-0.125-2.38-0.125-2.38 0-5l2-2h-2v-2c0.888-0.437 0.888-0.437 1.79-0.883 5.35-2.77 8.56-5.36 12.2-10.1h2c0.268-0.681 0.536-1.36 0.812-2.06 1.19-2.94 1.19-2.94 2.75-6 3.04-7.06 2.95-15.5 1.44-22.9l-0.562-2.94-0.438-2.06c4.76-1.78 9.24-2.58 14.2-3.12 0.746-0.0849 1.49-0.17 2.26-0.257 5.52-0.595 10.9-0.794 16.5-0.618z" fill="#F96E43"/>
<path transform="translate(131,223)" d="m0 0c2 2 2 2 2.25 4 0.248 0.66 0.495 1.32 0.75 2 1.98 0.717 3.98 1.38 6 2l2 3v-4l4 1 1-4c0.231 0.629 0.461 1.26 0.699 1.91 3.92 10.9 3.92 10.9 12.3 18.1 1.32 1.45 1.32 1.45 2.56 3.12 12.8 15.4 33.4 21.9 52.4 24.9l1 3c-17.4-0.818-30.9-7.29-45-17-1.19-0.794-2.37-1.59-3.56-2.38l-2.44-1.62-1 1-3 2 4 2c-2.62 5.75-2.62 5.75-6 8-1.04 2.85-1 4.88-1 8l2-2c2 5.62 2 5.62 2 9 0.32 2 0.653 4 1 6v1l1.88 0.312c2.12 0.688 2.12 0.688 4.12 3.69l-1 3c-0.22 2.87-0.264 4.52 1.12 7.06 0.433 0.959 0.433 0.959 0.875 1.94-0.875 2.25-0.875 2.25-2 4l2 1c1.69 1.56 1.69 1.56 3 4-0.0445 2.76-0.522 5.26-1 8-0.118 2.95-0.118 2.95 0.625 5.56l0.375 2.44-2 2-2-1c-0.99 0.33-1.98 0.66-3 1-2.13-0.523-2.13-0.523-4.56-1.38-3.64-1.18-6.93-1.86-10.8-2.12-3.93-0.315-6.62-0.829-9.69-3.5-0.625-2-0.625-2-1-4-1.48-1.73-1.48-1.73-3-3h2l-1-3h3l-2.19-2.12c-0.94-0.956-1.88-1.91-2.81-2.88-0.477-0.469-0.954-0.938-1.45-1.42-2.65-2.82-3.54-4.3-3.8-8.2l0.25-3.38c-0.298-1.34-0.622-2.68-1-4 0-3.84 0.464-7.59 0.879-11.4 0.283-2.71 0.283-2.71-0.879-5.59l-2-1 2-7-2-1 1-1-0.625-2.88c-0.375-3.12-0.375-3.12 0.938-5 1.69-1.12 1.69-1.12 3.69-1.12-0.433-0.681-0.866-1.36-1.31-2.06-4.69-8.16-4.69-8.16-4.69-12.9l-3-3 1.88-0.562c2.48-1.39 2.48-1.39 3.5-4.88 1.06-3.65 1.06-3.65-1.38-6.56 1.41-5.41 1.41-5.41 3-7z" fill="#FB613F"/>
<path transform="translate(166,71)" d="m0 0-1.5 1.25c-1.93 1.87-1.93 1.87-1.5 5.75 0.99-0.33 1.98-0.66 3-1l1 4-4 2c0.474 0.557 0.949 1.11 1.44 1.69 1.69 2.5 2.15 4.36 2.56 7.31l4 1-1 2h-4l2 6 2-1-1 4c0.928 0.0412 1.86 0.0825 2.81 0.125 1.05 0.289 2.1 0.578 3.19 0.875 1.07 1.97 2.07 3.97 3 6 2.08 0.96 2.08 0.96 4 1 1.12 6.75 1.12 6.75 0 9l3 1h-2l2 6-4 1c0 3.11 0.539 4.35 2 7-0.773 0.436-1.55 0.871-2.34 1.32-6.2 3.55-12.1 7.2-17.7 11.7l-1-3h2l-1-5-2.88-0.25-3.12-0.75c-1.19-2-1.19-2-2-4-0.99-0.33-1.98-0.66-3-1 0-4 0-4 2-6l-5 1c-0.598-0.763-1.2-1.53-1.81-2.31-1.66-2.04-3.29-3.89-5.19-5.69l-2 1 1 4-4 1c-0.309-0.949-0.619-1.9-0.938-2.88-1.16-3.68-1.16-3.68-3.62-6.44-1.44-1.69-1.44-1.69-1.75-4.25 0.312-2.44 0.312-2.44 2.31-4.44-2.12-3.37-3.84-5.86-6.81-8.56-0.722-0.804-1.44-1.61-2.19-2.44 0.188-2.81 0.188-2.81 1-5-0.99-0.33-1.98-0.66-3-1 0.667-2.67 1.33-5.33 2-8l-3-2-4 3v-11c0.615 0.373 1.23 0.745 1.86 1.13 0.808 0.473 1.62 0.946 2.45 1.43 0.801 0.476 1.6 0.951 2.43 1.44 2.35 1.34 2.35 1.34 5.26-0.00391h4v-2c-0.99-0.33-1.98-0.66-3-1h11v-2c1.04-0.049 2.07-0.098 3.14-0.148 1.37-0.0751 2.74-0.151 4.11-0.227 0.682-0.0309 1.36-0.0619 2.07-0.0938 5.74-0.334 9.92-2.79 15.7-2.53z" fill="#FB613F"/>
<path transform="translate(228,300)" d="m0 0h1c1.2 9.01 2.03 18 2.25 27.1 0.0258 1.05 0.0258 1.05 0.0521 2.13 0.0818 3.53 0.143 7.06 0.18 10.6 0.141 7.37 0.689 13.4 3.52 20.2h2c1.02 1.22 1.99 2.48 2.94 3.75 4.23 4.95 8.74 6.97 15.1 8.25 6.19 0.389 12-1.34 17-5 4.95-4.95 7.13-10.4 9-17 0.555-1.69 1.12-3.38 1.69-5.06 0.251-0.754 0.503-1.51 0.762-2.29 0.182-0.545 0.364-1.09 0.551-1.65 4.75 0.75 4.75 0.75 7 3-0.312 1.34-0.648 2.67-1 4 0.186 0.619 0.371 1.24 0.562 1.88 0.634 3.08-0.451 5.25-1.56 8.12 7.89 2.44 18.6 2.35 26-1.52 3.95-2.92 6.94-6.67 10-10.5l2-2 0.375 2.44 0.625 2.56 2 1c0.938 2.19 0.938 2.19 1 5-4.74 7.79-13.5 12.6-22.1 15.1-5.75 1.2-10.5 0.545-16.2-0.375-5.91-1.04-5.91-1.04-11.4 0.844-1.94 2.06-3.6 4.2-5.29 6.47-8.48 5.37-20.2 5.09-29.9 3.25-8.38-2.19-13.4-8.11-18-15.1-1.12-2.19-1.12-2.19-1.12-4.19h-2c-1.01-3.03-1.12-5.04-1.11-8.21 7.55e-5 -1.06 1.51e-4 -2.12 2.29e-4 -3.21 0.00516-1.14 0.0103-2.29 0.0156-3.47 0.00141-1.17 0.00283-2.34 0.00429-3.55 0.0056-3.75 0.0182-7.5 0.0309-11.2 0.00501-2.54 0.00958-5.08 0.0137-7.62 0.011-6.23 0.0278-12.5 0.0488-18.7l2 1 2-6z" fill="#EE8351"/>
<path transform="translate(301,108)" d="m0 0c10 17.2 10 17.2 10 26 13.8-1.6 21.2-5.07 31-15l2-3 2 1-2 6h3v-2l4-1 1 3c-12.8 13.4-22.9 18.5-41 22-0.346 1.18-0.346 1.18-0.699 2.38-1.98 6.39-3.91 11.5-8.3 16.6h-2c-0.289 0.639-0.578 1.28-0.875 1.94-1.12 2.06-1.12 2.06-3.12 3.06l1 3.44c1.05 4.74 1.26 9.35 1.31 14.2 0.0261 1.07 0.0261 1.07 0.0527 2.17-0.00471 5.11-1.09 8.63-3.37 13.2h-6c-1.06-1.81-1.06-1.81-2-4l1-3c0.696-11.8-0.475-23.6-8.64-32.9-5.6-5.08-12.2-7.23-19.4-9.14-0.365-4.5-0.365-4.5 1.22-6.67 2.96-2.22 5.55-1.45 9.07-0.973 5.56 1.32 10.3 3.62 13.6 8.39l1.12 2.25 3 1v2l5 1c0.277-0.568 0.554-1.14 0.84-1.72 1.56-3.06 3.3-6 5.04-8.96 2.52-5.2 2.19-10.2 1.87-15.8-0.0271-0.746-0.0541-1.49-0.082-2.26-0.252-4.59-0.985-7.39-3.67-11.2-1.12-2.63-2.04-5.3-3-8 3.62-4 3.62-4 7-4zm-6 67 1 2z" fill="#E6894A"/>
<path transform="translate(267,221)" d="m0 0c2.73 0.0329 5.3 0.564 8 1-1.8 7.48-1.8 7.48-3.05 10.8-1.06 3.57-1.21 6.58-1.2 10.3-0.00516 1.2-0.0103 2.4-0.0156 3.63 0.249 3.04 0.546 4.76 2.27 7.24l2.19 0.812c4.17 1.76 6.77 4.91 9.81 8.19l-1 2v3l-2 2c-4.42-0.1-7.14-1.38-10.4-4.34-3.85-4.04-7.81-8.33-9.59-13.7-8.82 1.48-16.6 5.85-22 13-6.68 10.9-7.32 21.2-7.41 33.7-0.0187 1.51-0.0383 3.03-0.0587 4.54-0.0511 3.96-0.0908 7.92-0.128 11.9-0.0402 4.05-0.0912 8.1-0.141 12.1-0.0965 7.93-0.181 15.9-0.258 23.8h-1c-0.0198-0.992-0.0396-1.98-0.0601-3.01-0.0771-3.74-0.166-7.49-0.257-11.2-0.0379-1.61-0.0728-3.22-0.104-4.83-0.196-9.82-0.751-19.3-2.58-28.9l-1 10h-1l-0.438-3.44c-0.174-3.37-0.174-3.37-1.56-4.56-0.256-3.97-0.185-7.96-0.188-11.9-0.0122-1.1-0.0245-2.21-0.0371-3.35-0.0162-9.12 0.436-17.5 5.22-25.5 2.91-4.9 2.91-4.9 5-10.2-1.08-3.31-2.01-6.01-4.5-8.5-2.43-2.43-3.7-5.21-4.5-8.5 0.0438-3.06 0.434-5.99 1-9 0.99 0.33 1.98 0.66 3 1 0.99-0.33 1.98-0.66 3-1 0.159 0.557 0.317 1.11 0.48 1.69 2.04 6.67 4.18 13.4 10.5 17 3.8 0.396 4.81-0.683 8-2.69 2.99-0.555 5.97-0.809 9-1 0.11-0.941 0.219-1.88 0.332-2.85 0.238-1.87 0.238-1.87 0.48-3.77 0.151-1.23 0.302-2.46 0.457-3.73 0.933-4.66 2.35-8.26 5.73-11.6z" fill="#E47F4E"/>
<path transform="translate(303 263)" d="m0 0c3.25 1.33 4.07 2.81 5.44 6l-1 3c0.655 1.67 1.32 3.34 2 5 0.279 2.1 0.486 4.2 0.625 6.31 0.0748 1.07 0.15 2.14 0.227 3.24 0.049 0.808 0.098 1.62 0.148 2.45l2.44 0.625c7.89 3.05 14.9 8.21 19.6 15.4 0.384 1.66 0.716 3.32 1 5 0.61 1.62 1.26 3.22 1.94 4.81 1.4 3.28 2.24 6.1 2.69 9.62 0.963 3.6 0.963 3.6 3.37 4.72 8.03 2.69 16.7 3.05 24.7 0.0938 5.7-3.1 10.7-7.88 14.3-13.3h4l1 3 2 1c-8.35 10.3-16.9 16.2-30 19-6.56 0.345-12.6-0.678-19-2-0.098 0.568-0.196 1.14-0.297 1.72-1.07 5.51-2.69 9.55-5.7 14.3h-3l-0.438-1.88c-0.494-2.16-0.494-2.16-1.56-4.12 0.242-2.04 0.484-4.08 0.727-6.12 1.18-12.4 1.22-25.4-7.04-35.4-3.25-3.3-6.45-5.56-10.7-7.44-3.6 1.2-4.04 2.24-6.12 5.31-3.59 4.83-7.22 6.85-12.9 8.69-3.88-2.75-3.88-2.75-5-5 2.42-2.49 4.72-4.8 7.56-6.81 3.82-3.43 5.92-7.29 6.82-12.4 0.279-5.43-1.22-9.6-3.51-14.5-0.982-2.65-1.15-4.56-0.875-7.36 2.18-2.42 3.3-3 6.56-3zm2.44 5 1 2z" fill="#ED9B4E"/>
<path transform="translate(339 53.7)" d="m0 0c10.3 8.51 17.6 19.9 18.9 33.3 0.362 8.72 0.00869 17.3-1 26 1.12 0.543 2.24 1.09 3.39 1.64 1.47 0.722 2.95 1.45 4.42 2.17 0.738 0.356 1.48 0.713 2.24 1.08 0.712 0.351 1.42 0.703 2.16 1.06 0.982 0.479 0.982 0.479 1.98 0.968 1.94 1.15 3.28 2.43 4.81 4.07 0.517 0.483 1.03 0.967 1.57 1.46 2.57 2.75 3.88 6.14 5.43 9.54 0.378 0.767 0.755 1.53 1.14 2.32 2.99 6.56 3.55 12.5 2.86 19.7l-1 2c-0.658 3.03-0.658 3.03-1 6l1 1 1-3v6l-3 1c-4.5-4.46-4.59-8.14-4.88-14.1-0.619-8.17-2.23-14.1-7.12-20.9-0.415-0.611-0.83-1.22-1.26-1.85-5.64-7.58-15-10-23.7-12.1v2h-3c0.883-5.95 1.84-11.7 3.69-17.4 3.47-12.3-0.427-25.1-6.5-35.9-3.93-6.18-9.86-12-17.1-14.2-2.24-0.463-4.33-0.616-6.61-0.687-0.835-0.0329-1.67-0.0657-2.53-0.0996-1.75-0.0615-3.51-0.119-5.26-0.172-0.833-0.0342-1.67-0.0683-2.52-0.104-1.14-0.0376-1.14-0.0376-2.3-0.0759-1.91-0.303-1.91-0.303-3.91-2.3l2-2h3l1-2c12.9-3.68 21.5-2.33 32.1 5.69z" fill="#EE9C4E"/>
<path transform="translate(233,110)" d="m0 0 2 1c0.681 0.289 1.36 0.578 2.06 0.875 1.94 1.12 1.94 1.12 2.94 4.12-0.707 1.83-0.707 1.83-1.81 3.81-3.08 5.58-4.48 11.1-5.38 17.4-0.179 1.21-0.358 2.42-0.543 3.67-0.481 3.17-0.481 3.17 0.73 6.14 0.0623 2.6 0.0668 5.18 0.0217 7.78-0.00961 0.79-0.0192 1.58-0.0291 2.4-0.033 2.61-0.0733 5.23-0.114 7.84-0.0243 1.81-0.0481 3.62-0.0715 5.44-0.0628 4.77-0.132 9.54-0.202 14.3-0.0707 4.87-0.136 9.73-0.201 14.6-0.129 9.55-0.265 19.1-0.404 28.6l-4 2-1-1-1 4h-2c-0.885-12.2-1.11-24.4-0.984-36.6 0.0168-1.83 0.0334-3.66 0.05-5.49 0.0361-3.8 0.0773-7.61 0.121-11.4 0.0552-4.84 0.0917-9.68 0.124-14.5 0.028-3.77 0.0691-7.53 0.114-11.3 0.019-1.78 0.0334-3.57 0.0428-5.35 0.14-24.1 0.14-24.1 6.72-34.1 0.53-0.82 1.06-1.64 1.61-2.48 0.398-0.583 0.797-1.17 1.21-1.77z" fill="#ED7C4D"/>
<path transform="translate(298,75)" d="m0 0c2.59 0.35 4.58 0.738 6.81 2.12 1.88 2.97 1.71 5.52 1.19 8.88-2.85 11.5-2.85 11.5-5.66 15.2-1.7 1.87-1.7 1.87-1.03 5.06l0.688 2.75c-1.33 0.667-2.67 1.33-4 2l-3.12 1.62c-2.88 1.38-2.88 1.38-4.88 1.38v2c-11.8 5.79-22.1 9.24-35.2 4.95-4.46-1.81-8.72-3.82-12.9-6.27-2.81-1.94-2.81-1.94-5.94-1.69-0.0928-0.99-0.0928-0.99-0.188-2-0.978-3.61-2.71-6.1-4.85-9.13-0.317-0.616-0.634-1.23-0.961-1.87l1-3v2l5-1 1 3h2v2h2l1-2c0.594 0.531 1.19 1.06 1.8 1.61 7.54 6.43 15.6 11.3 25.9 10.8 7.53-1.25 13.9-3.98 19.3-9.39l1-2h2c0.676-1.66 1.34-3.33 2-5l1.5-3.56c1.71-4.52 2.38-9.13 3.07-13.9 0.43-2.54 0.43-2.54 1.43-4.54z" fill="#ED8351"/>
<path transform="translate(284,341)" d="m0 0c3.26 0.418 4.63 0.634 7 3-0.312 1.34-0.648 2.67-1 4 0.186 0.619 0.371 1.24 0.562 1.88 0.634 3.08-0.451 5.25-1.56 8.12 7.89 2.44 18.6 2.35 26-1.52 3.95-2.92 6.94-6.67 10-10.5l2-2 0.375 2.44 0.625 2.56 2 1c0.938 2.19 0.938 2.19 1 5-4.74 7.79-13.5 12.6-22.1 15.1-5.75 1.2-10.5 0.546-16.2-0.375-5.93-1.06-5.93-1.06-11.4 0.914-2.05 2.16-2.05 2.16-3.74 4.48-1.55 1.92-1.55 1.92-5.05 2.92h-2.5l-2-5 1.88-0.25c2.24-0.536 2.24-0.536 3.12-2.44l1-2.31c0.938-1.24 0.938-1.24 1.89-2.5 2.85-4.21 3.7-8.91 4.79-13.8 0.418-1.81 0.838-3.62 1.26-5.43 0.179-0.794 0.358-1.59 0.542-2.41 0.509-1.85 0.509-1.85 1.51-2.85z" fill="#F28752"/>
<path transform="translate(262,19)" d="m0 0-1 3-15 1-1 3h-2c-0.931 2.61-1.15 3.64-0.0625 6.25l1.06 1.75-1.75 0.562c-5.46 3.49-7.05 10.3-8.61 16.2-1.17 5.96-1.16 11.9-1.14 18-2.32e-4 0.66-4.63e-4 1.32-7.02e-4 2 0.0252 10.4 1.19 18.8 5.5 28.3 0.369 1.32 0.72 2.65 1 4h-2v-2h-2l-1-2h-5v-2h-2c-2.94-9.17-3.47-17.7-3.39-27.3 0.0161-2.31 5.16e-5 -4.61-0.019-6.92-0.0154-10 0.216-20.4 6.41-28.8 0.495-0.69 0.99-1.38 1.5-2.09 0.495-0.651 0.99-1.3 1.5-1.97 0.438-0.678 0.877-1.36 1.33-2.05 4.16-4.84 11.4-7.42 17.5-8.82 3.4-0.133 6.78-0.194 10.2-0.125z" fill="#EE7D4D"/>
<path transform="translate(341,226)" d="m0 0c2.31 0.33 4.62 0.66 7 1l1 3-1 1c0.0326 1.36 0.102 2.71 0.188 4.06 0.0556 7.01-2.84 11.6-7.5 16.6-2.4 2.6-2.4 2.6-2.81 6.12 1.39 2.7 2.44 2.89 5.12 4.19 1.29 0.954 2.56 1.93 3.81 2.94 5.56 4.2 10.7 6.73 17.8 6.48 7.43-1.3 14.2-6.34 20.4-10.4-0.584 3.13-0.757 3.81-3.38 5.88-1.2 0.719-2.41 1.43-3.62 2.12-1.23 0.785-1.23 0.785-2.49 1.59-6.09 3.67-11.3 5.88-18.5 4.41l-2-2c-0.757-0.286-1.51-0.572-2.29-0.867-3.16-1.32-5.38-3.08-8.02-5.26-0.883-0.724-1.77-1.45-2.68-2.2-0.664-0.554-1.33-1.11-2.01-1.68v2l3 2-5-1v-2l-5 1c-0.331-0.647-0.663-1.29-1-1.96-2.49-2.54-4.28-2.53-7.75-2.65-0.72-0.00516-1.44-0.0103-2.18-0.0156-9.02-0.162-9.02-0.162-12.1-2.38-0.875-2.44-0.875-2.44-1-5l2-3c2.57-0.188 2.57-0.188 5.69 0 6.87 0.156 10.5-0.798 16-5.12 4.46-5.54 6.57-12.1 8.31-18.9z" fill="#DF9249"/>
<path transform="translate(269 221)" d="m0 0c2.98 0.537 2.98 0.537 5.96 1.07-1.8 7.48-1.8 7.48-3.05 10.8-1.06 3.57-1.21 6.58-1.2 10.3-0.00516 1.2-0.0103 2.4-0.0156 3.63 0.249 3.04 0.546 4.76 2.27 7.24l2.19 0.812c4.17 1.76 6.77 4.91 9.81 8.19l-1 2v3l-2 2c-4.42-0.1-7.14-1.38-10.4-4.34-3.85-4.04-7.81-8.33-9.59-13.7-8.15 1.34-15 5.47-21 11l-1-4h2l1-6c0.99-0.33 1.98-0.66 3-1l-3-2c0.99-0.268 1.98-0.536 3-0.812 2.83-0.802 5.57-1.75 8.31-2.81 3.69-1.38 3.69-1.38 5.69-1.38 0.0374-0.762 0.0748-1.52 0.113-2.31 0.943-14.8 0.943-14.8 5.23-20.5 1.66-1.23 1.66-1.23 3.7-1.31z" fill="#ED7C4D"/>
<path transform="translate(303 263)" d="m0 0c3.25 1.33 4.07 2.81 5.44 6l-1 3c0.655 1.67 1.32 3.34 2 5 0.279 2.1 0.486 4.2 0.625 6.31 0.0748 1.07 0.15 2.14 0.227 3.24 0.049 0.808 0.098 1.62 0.148 2.45l2.44 0.625c8.32 3.21 14.1 8.44 19.6 15.4l-2 1v-2l-1.94-0.875c-2.06-1.12-2.06-1.12-3.06-3.12-0.99-0.33-1.98-0.66-3-1l-1-2h-3l1 2h-2v2l-1.69-0.938c-2.44-1.12-4.68-1.58-7.31-2.06-0.473 0.675-0.946 1.35-1.43 2.05-4.53 6.11-8.25 9.68-15.6 12-3.88-2.75-3.88-2.75-5-5 2.42-2.49 4.72-4.8 7.56-6.81 3.82-3.43 5.92-7.29 6.82-12.4 0.279-5.43-1.22-9.6-3.51-14.5-0.982-2.65-1.15-4.56-0.875-7.36 2.18-2.42 3.3-3 6.56-3zm2.44 5 1 2z" fill="#DC8347"/>
<path transform="translate(345,114)" d="m0 0 5 1v4h2l1-3h2v-2c4.58 0.561 8.09 1.79 12.2 3.88 1.02 0.513 2.05 1.03 3.11 1.55 2.39 1.38 3.9 2.54 5.71 4.57 0.517 0.483 1.03 0.967 1.57 1.46 2.57 2.75 3.88 6.14 5.43 9.54 0.378 0.767 0.755 1.53 1.14 2.32 2.99 6.56 3.55 12.5 2.86 19.7l-1 2c-0.658 3.03-0.658 3.03-1 6l1 1 1-3v6c-0.99 0.33-1.98 0.66-3 1-4.5-4.46-4.59-8.14-4.88-14.1-0.619-8.17-2.23-14.1-7.12-20.9-0.415-0.611-0.83-1.22-1.26-1.85-5.64-7.58-15-10-23.7-12.1v2h-3l1-9z" fill="#EAA850"/>
<path transform="translate(326,155)" d="m0 0c3.38 0.125 3.38 0.125 7 1 1.75 2.5 1.75 2.5 3 5 0.99 0.33 1.98 0.66 3 1 0.625 1.94 0.625 1.94 1 4l1 2c2.02 0.652 2.02 0.652 4 1v9h-2l-0.359 2.17c-0.664 2.93-1.61 5.37-2.89 8.08-0.397 0.871-0.794 1.74-1.2 2.64-1.55 2.11-1.55 2.11-4.03 3.03-2.52 0.0781-2.52 0.0781-5.52-1.92 0.422-2.95 0.907-4.86 2.56-7.38 1.97-3.59 1.97-5.55 1.44-9.62-1.87-4.75-4.12-8.93-7.38-12.9-1.62-2.12-1.62-2.12-1.44-4.38 0.812-1.75 0.812-1.75 1.81-2.75z" fill="#E98C4C"/>
<path transform="translate(233,268)" d="m0 0 1 2h2c-0.211 0.751-0.421 1.5-0.638 2.28-2.32 9-2.83 17.6-2.87 26.9-0.0169 1.51-0.035 3.01-0.0544 4.52-0.047 3.92-0.0771 7.83-0.103 11.8-0.0301 4.02-0.0765 8.03-0.121 12-0.0855 7.85-0.153 15.7-0.209 23.5h-1c-0.0198-0.992-0.0396-1.98-0.0601-3.01-0.0771-3.74-0.166-7.49-0.257-11.2-0.0379-1.61-0.0728-3.22-0.104-4.83-0.196-9.82-0.751-19.3-2.58-28.9l-1 10h-1l-0.438-3.44c-0.174-3.37-0.174-3.37-1.56-4.56-0.0998-1.77-0.131-3.55-0.133-5.32-0.00129-1.09-0.00258-2.19-0.00391-3.31 0.00387-1.15 0.00773-2.3 0.0117-3.49-0.00387-1.13-0.00773-2.26-0.0117-3.42 0.0176-15.1 0.0176-15.1 3.51-19.4 2.62-2.06 2.62-2.06 5.62-2.06z" fill="#EE8551"/>
<path transform="translate(262,19)" d="m0 0-1 3-15 1-1 3h-2c-0.931 2.61-1.15 3.64-0.0625 6.25l1.06 1.75-1.75 0.562c-6.36 4.06-7.61 12.6-9.25 19.4l-1-3h-4c-1.88-1.5-1.88-1.5-3-4 0.812-6.85 3.96-11.5 8-17 0.659-1.02 0.659-1.02 1.33-2.07 4.17-4.83 11.4-7.41 17.5-8.81 3.4-0.133 6.78-0.194 10.2-0.125z" fill="#F36F44"/>
<path transform="translate(285,169)" d="m0 0h5l2 4 1-2c3.79 3.55 4.92 5.46 5.2 10.8 0.0212 1.49 0.0367 2.99 0.0469 4.48 0.0206 0.739 0.0412 1.48 0.0625 2.24 0.037 5.25-0.954 8.82-3.31 13.5h-6c-1.06-1.81-1.06-1.81-2-4l1-3c0.432-7.34 0.136-14-2-21-0.347-1.66-0.687-3.33-1-5z" fill="#EF8452"/>
<path transform="translate(284,341)" d="m0 0c3.26 0.418 4.63 0.634 7 3-0.312 1.34-0.648 2.67-1 4 0.278 0.928 0.278 0.928 0.562 1.88 0.634 3.08-0.451 5.25-1.56 8.12 7.89 2.44 18.6 2.35 26-1.52 3.95-2.92 6.94-6.67 10-10.5l2-2c-0.94 4.98-3.87 8.15-7 12-0.432 0.588-0.864 1.18-1.31 1.78-3.71 4.49-7.77 5.4-13.4 6.11-5.71 0.185-12.1-0.303-17.2-2.89l-2-3c-3.89-0.211-3.89-0.211-7 1 0.641-2.81 1.29-5.63 1.94-8.44 0.182-0.802 0.365-1.6 0.553-2.43 1.4-6.02 1.4-6.02 2.51-7.13z" fill="#B5693B"/>
<path transform="translate(1544,135)" d="m0 0 1 3-10-2-1-3-1 2h-2v-2h-2v2h-2l-2-2c-2.46-0.259-4.82-0.398-7.29-0.449-0.736-0.0217-1.47-0.0435-2.23-0.0659-1.57-0.044-3.14-0.0832-4.71-0.118-2.34-0.0531-4.68-0.124-7.02-0.197-8.96-0.248-17.8-0.0416-26.7 0.698-3.05 0.132-3.05 0.132-5.05-0.868l1-3c22.7-2.2 49.8-4.16 71 6z" fill="#07090A"/>
<path transform="translate(262,20)" d="m0 0c4.97 0.0403 9.34 0.344 13 4l-5 2 1 1c0.683 1.33 1.35 2.66 2 4l-2 2-1-2c-9.35-3.11-18.1-1.77-27 2l-2-4c4.87-6.36 4.87-6.36 9-7 2.88-0.293 5.75-0.505 8.64-0.719 2.32-0.0286 2.32-0.0286 3.36-1.28z" fill="#EC7A4B"/>
<path transform="translate(344,116)" d="m0 0 2 1-2 6h3v-2l4-1 1 3c-13.6 14.3-13.6 14.3-19 16-2.73-0.209-4.44-0.881-7-2l1-5c0.816-0.0657 0.816-0.0657 1.65-0.133 3.53-1.3 5.56-3.98 7.98-6.74 0.49-0.543 0.98-1.09 1.48-1.64 2.16-2.41 4.09-4.79 5.89-7.48z" fill="#E5974B"/>
<path transform="translate(269 221)" d="m0 0c2.93 0.635 2.93 0.635 5.86 1.27-1.15 4.75-2.38 9.38-4 14h-2l-0.312 3.38-0.688 3.62c-3 2-3 2-7 2-1.21-4.34-0.742-7.62 0.188-12 0.241-1.2 0.482-2.39 0.73-3.62 1.27-3.96 2.67-8.07 7.22-8.64z" fill="#D26D44"/>
<path transform="translate(338,262)" d="m0 0c4.08 1.85 7.24 4.52 10.7 7.34 2.38 1.7 4.59 2.63 7.32 3.66l3 2c1.99 0.39 3.99 0.732 6 1l-4 2v2c-5.84 1.65-9.15 0.55-14.4-2.33-10.7-6.9-10.7-6.9-12.6-12.7 1.94-0.562 1.94-0.562 4-1l1 1-1-3z" fill="#F0AB52"/>
<path transform="translate(326,347)" d="m0 0h2v2l2 1c0.938 2.19 0.938 2.19 1 5-3.62 5.95-9.7 10.2-16 13-2.84-0.309-2.84-0.309-5-1l2-3-1-2 2.06-1c4.71-3.21 8.25-7.61 11.5-12.3 0.467-0.576 0.933-1.15 1.41-1.75z" fill="#F08F4D"/>
<path transform="translate(278,359)" d="m0 0 1 3c-1.75 2.94-1.75 2.94-4 6-0.438 0.665-0.877 1.33-1.33 2.02-3.76 4.46-9.78 6.67-15.5 7.29-8.49-0.362-15.6-4.22-21.4-10.4-1.81-2.88-1.81-2.88-1.62-5.25l0.812-1.62 2.19 2.25c5.65 5.53 11 9.49 19.1 9.85 6.38-0.463 12.2-2.29 16.5-7.14 1.47-1.94 2.85-3.91 4.17-5.96z" fill="#000102"/>
<path transform="translate(616,56)" d="m0 0v2h-65v-2c19.4-4.43 45.5-4.31 65 0z" fill="#161919"/>
<path transform="translate(271,253)" d="m0 0c6.12 2.12 9.69 5.22 14 10l-1 2v3l-2 2c-3.9-0.0887-5.98-0.989-9.31-3.06-3.55-3.88-3.69-5.74-3.69-10.9l2-3z" fill="#F0904E"/>
<path transform="translate(381,312)" d="m0 0 1 2c-5.37 7.83-11.2 15-20.7 17.6-7.46 1.38-15.5 0.962-22.3-2.57-1.28-2.11-1.28-2.11-2-4l2-2 1 1.38c4.28 3.48 10.6 4.05 15.9 3.87 6.97-0.83 12.1-3.6 17.4-8.04 1.63-1.21 1.63-1.21 3.63-1.21 0.289-0.598 0.578-1.2 0.875-1.81 1.12-2.19 1.12-2.19 3.12-5.19z" fill="#000102"/>
<path transform="translate(322,45)" d="m0 0c-3.13 1.78-5.89 2.42-9.44 2.94-4.12 0.688-7.17 1.49-10.6 4.06l1 3-8 3-2-2v-2l-2-1c-0.625-2.06-0.625-2.06-1-4l1.94-0.312c2.88-0.548 2.88-0.548 4.77-1.42 8.09-3.37 16.7-2.52 25.3-2.27z" fill="#EB8250"/>
<path transform="translate(161,250)" d="m0 0c1.17 0.875 2.33 1.75 3.5 2.62l2.25 1.67c1.35 1.03 2.69 2.07 4 3.16 12.9 10.4 28.1 15 44.2 17.5l1 3c-16.4-0.771-29.6-6.44-43-15.6-1.83-1.26-3.7-2.45-5.58-3.63-1.21-0.866-1.21-0.866-2.44-1.75v-2h-2v-2c-0.99-0.33-1.98-0.66-3-1l1-2z" fill="#000102"/>
<path transform="translate(269,236)" d="m0 0h1c0.196 3.48 0.38 6.96 0.562 10.4 0.0561 0.993 0.112 1.99 0.17 3.01 0.0483 0.944 0.0967 1.89 0.146 2.86 0.0471 0.875 0.0943 1.75 0.143 2.65-0.0217 2.04-0.0217 2.04-1.02 3.04 0.409 2.05 0.409 2.05 1 4-3.85-1.51-5.83-3.48-8-7-0.608-2.99-0.867-5.95-1-9h-2l1-3v2l3-2h4l1-7z" fill="#F28753"/>
<path transform="translate(379,270)" d="m0 0v4l3 2c-7.81 3.11-14.5 5.73-23 5l2-1v-2l-2-1v-2c0.664-0.11 1.33-0.219 2.01-0.332 6.26-1.12 11.8-5.2 18-4.67z" fill="#F09D4E"/>
<path transform="translate(326,155)" d="m0 0c3.38 0.125 3.38 0.125 7 1 1.75 2.5 1.75 2.5 3 5 0.99 0.33 1.98 0.66 3 1v5c-0.99 0.33-1.98 0.66-3 1l-1 2h-4c-2.06-2.75-2.06-2.75-4-6-0.598-0.701-1.2-1.4-1.81-2.12-1.19-1.88-1.19-1.88-0.938-4.06 0.75-1.81 0.75-1.81 1.75-2.81z" fill="#CB8743"/>
<path transform="translate(885,225)" d="m0 0h1v96h-1c-0.0251-1.04-0.0501-2.08-0.0759-3.15-0.0943-3.86-0.194-7.72-0.296-11.6-0.0433-1.67-0.085-3.34-0.125-5.01-0.0579-2.4-0.122-4.81-0.186-7.21-0.0167-0.745-0.0334-1.49-0.0506-2.26-0.097-3.41-0.328-6.51-1.27-9.79-0.0679-2.25-0.085-4.5-0.0625-6.75 0.00902-1.17 0.018-2.34 0.0273-3.55 0.0116-0.892 0.0232-1.78 0.0352-2.7h2v-44z" fill="#222523"/>
<path transform="translate(811,128)" d="m0 0v2h5v1c-15.2 0.66-30.4 1.32-46 2v-3c13.7-1.65 27.2-2.25 41-2z" fill="#0A0B0C"/>
<path transform="translate(326,344)" d="m0 0 1 3c-1.96 3.28-4.53 6.09-7 9-0.456 0.611-0.913 1.22-1.38 1.85-3.67 4.46-7.75 5.33-13.4 6.04-5.71 0.185-12.1-0.303-17.2-2.89l1-3c0.512 0.159 1.02 0.317 1.55 0.48 7.76 1.65 17.3 1.75 24.4-2 4.39-3.24 8.55-7.57 11-12.5z" fill="#010202"/>
<path transform="translate(340,260)" d="m0 0c0.461 0.375 0.923 0.75 1.4 1.14 6.82 5.35 14.3 10.9 23.3 10.4 7.4-1.58 14-6.39 20.3-10.5-0.584 3.13-0.757 3.81-3.38 5.88-1.2 0.719-2.41 1.43-3.62 2.12-0.822 0.523-1.64 1.05-2.49 1.59-6.09 3.67-11.3 5.88-18.5 4.41l-2-2c-0.746-0.276-1.49-0.552-2.26-0.836-3.38-1.44-5.75-3.42-8.55-5.79-0.976-0.817-1.95-1.63-2.96-2.48-0.736-0.626-1.47-1.25-2.23-1.9l1-2z" fill="#030304"/>
<path transform="translate(309,253)" d="m0 0c2.59-0.135 5.16-0.234 7.75-0.312 0.73-0.0419 1.46-0.0838 2.21-0.127 3.97-0.0902 5.63 0.0509 8.55 2.83 1.48 2.61 1.48 2.61 1.48 4.61-2.42 0.0541-4.83 0.0937-7.25 0.125-0.682 0.0168-1.36 0.0335-2.07 0.0508-6.97 0.0677-6.97 0.0677-9.68-2.18-0.75-2.62-0.75-2.62-1-5z" fill="#EB8D4C"/>
<path transform="translate(231,283)" d="m0 0h1v68h-1c-0.0251-1.03-0.0501-2.06-0.0759-3.12-0.0945-3.84-0.195-7.67-0.296-11.5-0.0432-1.66-0.0849-3.31-0.125-4.97-0.0581-2.39-0.122-4.78-0.186-7.16-0.0167-0.735-0.0334-1.47-0.0506-2.23-0.117-4.1-0.554-7.99-1.27-12-0.2-3.31-0.185-6.62-0.188-9.94-0.0184-1.3-0.0184-1.3-0.0371-2.63-0.0118-5.21 0.527-9.5 2.22-14.4z" fill="#F1904E"/>
<path transform="translate(344,168)" d="m0 0c1.6-0.0542 3.21-0.0929 4.81-0.125 0.893-0.0232 1.79-0.0464 2.71-0.0703 2.48 0.195 2.48 0.195 5.48 2.2h-2v2l5 5h-15c-2.25-5.62-2.25-5.62-1-9z" fill="#F19E4F"/>
<path transform="translate(270,374)" d="m0 0 1 3c0.99 0.33 1.98 0.66 3 1-6.85 4.11-15.3 3.11-23 3l-2-4c1-1 1-1 3.33-1.03 1.94 0.0596 3.88 0.122 5.81 0.188 4.33-0.243 7.43-2.16 11.9-2.16z" fill="#ED7B4C"/>
<path transform="translate(320,47)" d="m0 0c-1.3 2.9-2.46 5.06-5 7-2.85 0.363-2.85 0.363-6.06 0.312-1.06-0.00387-2.13-0.00773-3.22-0.0117-2.71-0.301-2.71-0.301-4.71-2.3l2-2h3l1-2c4.29-1.3 8.57-1.08 13-1z" fill="#EE8E4E"/>
<path transform="translate(298,299)" d="m0 0 2 1-1 3h-3l1 3 2 1v-2l2 1c-3.22 3.87-6.15 4.88-11 6l-3-3c3.34-4.32 6.33-7.17 11-10z" fill="#F18652"/>
<path transform="translate(333,182)" d="m0 0 3 2v2c0.99 0.33 1.98 0.66 3 1-0.75 4.75-0.75 4.75-3 7-3.12-0.375-3.12-0.375-6-1-0.75-1.56-0.75-1.56-1-4 1.13-2.5 2.52-4.67 4-7z" fill="#E98450"/>
<path transform="translate(303 263)" d="m0 0c3.23 1.32 4.06 2.85 5.44 6l-1 2-2-1c-3.72 1.12-4.78 1.67-7 5-1.84-3.1-2.55-5.39-2-9 2.18-2.42 3.3-3 6.56-3z" fill="#F19B4E"/>
<path transform="translate(313 44.9)" d="m0 0c1.24 0.0135 1.24 0.0135 2.51 0.0273 2.02 0.0233 4.04 0.0592 6.06 0.0977-3.12 1.76-5.9 2.45-9.44 3-3.79 0.59-7.04 1.47-10.6 3l-5-4c5.62-1.92 10.5-2.25 16.4-2.12z" fill="#C4683F"/>
<path transform="translate(842,133)" d="m0 0v2c-1.46 0.054-2.92 0.0928-4.38 0.125-0.812 0.0232-1.62 0.0464-2.46 0.0703-2.16-0.195-2.16-0.195-4.16-2.2-2.37-0.301-4.74-0.495-7.12-0.625-1.92-0.112-1.92-0.112-3.88-0.227-1.48-0.0735-1.48-0.0735-2.99-0.148 6.21-6.21 17.9-2.12 25 1z" fill="#0B0C0D"/>
<path transform="translate(334,244)" d="m0 0v3c-5.6 5.23-9.25 6.15-16.7 6.06-0.702-0.00451-1.4-0.00902-2.13-0.0137-1.73-0.0118-3.46-0.0297-5.19-0.0488l1-3c1.18 0.0522 1.18 0.0522 2.38 0.105 8.45 0.218 14-0.525 20.6-6.11z" fill="#000102"/>
<path transform="translate(592,54)" d="m0 0c3.06 0.141 6.13 0.288 9.19 0.438 0.864 0.0393 1.73 0.0786 2.62 0.119 4.15 0.207 8.14 0.444 12.2 1.44v2l-25-1 1-3z" fill="#181A1A"/>
<path transform="translate(310,289)" d="m0 0c9.5 2.44 16.1 8.48 22 16l-2 1v-2l-1.94-0.875c-2.06-1.12-2.06-1.12-3.06-3.12-0.99-0.33-1.98-0.66-3-1l-1-2-2.75-1.31c-3.46-1.8-5.63-3.84-8.25-6.69z" fill="#000102"/>
<path transform="translate(1523,269)" d="m0 0 1 3c-1.7 0.433-1.7 0.433-3.44 0.875l-3.56 1.12-1 2v-2h-2v2l-5 1c0.364-2.55 0.58-3.68 2.67-5.27 6.93-3.28 6.93-3.28 11.3-2.73z" fill="#08090A"/>
<path transform="translate(500,252)" d="m0 0c5.65-0.346 9.03 0.566 14 3l-2 5-1-4-5-1v2l-4-1h3v-3h-3l-2 7h-3c0.628-2.93 1.59-5.36 3-8z" fill="#0E0F11"/>
<path transform="translate(1527,131)" d="m0 0c6.16 0.414 11.4 1.39 17 4l1 3-10-2-1-3-1 2h-2v-2h-2v2h-2v-4z" fill="#090B0C"/>
<path transform="translate(224,292)" d="m0 0h3c0.888 7.19 1.01 13.8 0 21h-1l-0.438-3.44c-0.174-3.37-0.174-3.37-1.56-4.56-0.0726-2.19-0.0837-4.38-0.0625-6.56 0.00902-1.2 0.018-2.4 0.0273-3.63 0.0116-0.927 0.0232-1.85 0.0352-2.81z" fill="#F18F4E"/>
<path transform="translate(260,243)" d="m0 0v2c-0.71 0.277-1.42 0.554-2.15 0.84-1.38 0.543-1.38 0.543-2.79 1.1-0.917 0.36-1.83 0.719-2.78 1.09-2.21 0.772-2.21 0.772-3.29 1.97-2.38 0.25-2.38 0.25-5 0-1.81-1.5-1.81-1.5-3-3l1-2 1.69 1.19c1.14 0.402 1.14 0.402 2.31 0.812 2.5-1.3 2.5-1.3 5-3 3.2-0.857 5.65-1 9-1z" fill="#030303"/>
<path transform="translate(662,186)" d="m0 0c3.35 1.49 5.87 3.41 8.62 5.81 0.776 0.666 1.55 1.33 2.35 2.02 2.15 2.3 3.06 4.2 4.02 7.17h-3v-3l-4-1v-3h-2c-1.51-1.5-1.51-1.5-3.12-3.44-0.539-0.638-1.08-1.28-1.63-1.93-1.24-1.63-1.24-1.63-1.24-2.63z" fill="#08090B"/>
<path transform="translate(83,287)" d="m0 0c0.812 1.69 0.812 1.69 1 4-2 2.38-2 2.38-5 5-0.59 0.522-1.18 1.04-1.79 1.58-7.34 6.42-7.34 6.42-11.2 6.42 1.26-3.78 2.39-4.02 5.81-5.88 3.96-2.27 6.66-4.23 9.19-8.12l2-3z" fill="#1E0D0B"/>
<path transform="translate(1297,189)" d="m0 0h2c-0.506 2.17-1 4-2 6h-2c-0.268 0.742-0.536 1.48-0.812 2.25-1.14 2.64-2.28 4.61-4.19 6.75h-2l-1 3c-0.459-3.55-0.124-4.82 1.93-7.82 0.826-0.945 1.65-1.89 2.5-2.86 3.11-3.44 3.11-3.44 5.56-7.31z" fill="#0D0F10"/>
<path transform="translate(387,149)" d="m0 0h1c1.79 6.95 1.19 14 0 21-0.289-0.639-0.578-1.28-0.875-1.94-0.953-2.21-0.953-2.21-3.12-3.06l1-8h2v-8z" fill="#E5964C"/>
<path transform="translate(1155,131)" d="m0 0c5.95 0.372 10.4 2.15 15 6v2h-3v-2l-12-3v-3z" fill="#0A0B0C"/>
<path transform="translate(134,70)" d="m0 0c1.49 0.476 1.49 0.476 3 0.961 3.97 1.13 7.81 1.45 11.9 1.66 0.684 0.0387 1.37 0.0773 2.07 0.117 1.66 0.093 3.33 0.176 4.99 0.258v1h-15v2h-6l-1-6z" fill="#913526"/>
<path transform="translate(257,113)" d="m0 0h19c-3.43 3.43-4.31 3.65-9 4-3.02-0.212-6-0.567-9-1l-1-3z" fill="#DD6E45"/>
<path transform="translate(515,256)" d="m0 0h2v2c0.603 0.121 1.21 0.242 1.83 0.367 0.799 0.168 1.6 0.335 2.42 0.508 0.789 0.162 1.58 0.325 2.39 0.492 2.33 0.624 4.25 1.48 6.36 2.63v2h3v2l-8-2v-3c-0.742 0.0412-1.48 0.0825-2.25 0.125-2.84-0.129-4.34-0.696-6.75-2.12v2l-2-1 1-4z" fill="#0E0F10"/>
<path transform="translate(1457,267)" d="m0 0 1.94 2.19c3.46 3.5 7.71 5.59 12.1 7.81v2c-0.99 0.33-1.98 0.66-3 1l-1-2c-0.742-0.227-1.48-0.454-2.25-0.688-3.81-1.82-5.72-4.66-7.75-8.31v-2z" fill="#0F1111"/>
<path transform="translate(550,124)" d="m0 0c1.25 2.5 0.904 3.91 0.688 6.69-0.0788 4.2 0.477 6.14 3.31 9.25 0.557 0.525 1.11 1.05 1.69 1.59 1.31 1.47 1.31 1.47 1.31 4.47h-2c-4.48-5.04-6.28-8.41-6.19-15.2 0.00645-1.07 0.0129-2.13 0.0195-3.23 0.168-2.58 0.168-2.58 1.17-3.58z" fill="#1E1F1D"/>
<path transform="translate(333,127)" d="m0 0 2 1c-4.35 4.24-8.05 5.91-13.9 7.42-2.05 0.388-2.05 0.388-3.07 1.58-1.67 0.0406-3.33 0.0427-5 0v-2c0.687-0.115 1.37-0.229 2.08-0.348 3.35-0.748 6.41-1.86 9.61-3.09 1.71-0.648 1.71-0.648 3.45-1.31 2.93-1.07 2.93-1.07 4.86-3.25z" fill="#21170F"/>
<path transform="translate(140,121)" d="m0 0c1.88 0.125 1.88 0.125 4 1 1.81 2.44 1.81 2.44 3 5l-1 2c-0.99 0.33-1.98 0.66-3 1-1.66-2.67-3-5-4-8l1-1z" fill="#F95B3F"/>
<path transform="translate(502,249)" d="m0 0c5.85 0.45 10.1 3.04 15 6l-3 2v-2c-4.29-0.99-8.58-1.98-13-3l1-3z" fill="#010203"/>
<path transform="translate(345,114)" d="m0 0 5 1 1 5-4 1v2h-3l1-9z" fill="#F1AA52"/>
<path transform="translate(1382,289)" d="m0 0h1v35h-1v-35z" fill="#333734"/>
<path transform="translate(161,250)" d="m0 0c4.39 3.27 8.75 6.55 13 10l-1 3-2.31-1.88c-2.68-2.18-2.68-2.18-5.69-4.12v-2h-2v-2c-0.99-0.33-1.98-0.66-3-1l1-2z" fill="#030405"/>
<path transform="translate(142,206)" d="m0 0h1c0.339 2.52 0.671 5.04 1 7.56 0.0954 0.704 0.191 1.41 0.289 2.13 0.578 4.48 0.806 8.79 0.711 13.3-3.6-3.6-3.53-9.09-4-14 0.108-3.1 0.489-5.93 1-9z" fill="#F06842"/>
<path transform="translate(1427,218)" d="m0 0 2 2-2.25 1.69c-2.83 2.22-2.83 2.22-4.94 5.06l-1.81 2.25h-2c0-2.12 0-2.12 1-5 2.5-2.25 5.2-4.14 8-6z" fill="#0A0B0C"/>
<path transform="translate(1408,156)" d="m0 0c0.99 0.33 1.98 0.66 3 1l-1 3 2 1v4l2 1h-4c-2.25-3-2.25-3-4-6l2-4z" fill="#0F1011"/>
<path transform="translate(1040,130)" d="m0 0c8.19-0.63 8.19-0.63 11.6 2 0.474 0.66 0.949 1.32 1.44 2-2.49 1.25-3.41 0.777-6 0v-2h-2v2h-2v-2h-3v-2z" fill="#0B0C0E"/>
<path transform="translate(262,19)" d="m0 0-1 3-12 1-1-3c4.72-0.771 9.22-1.1 14-1z" fill="#F46E46"/>
<path transform="translate(296,185)" d="m0 0h1c0.196 1.58 0.382 3.17 0.562 4.75 0.104 0.882 0.209 1.76 0.316 2.67 0.118 2.51 0.0783 4.26-0.879 6.58-0.99 0.33-1.98 0.66-3 1l-1-4h3v-2l-4 1v-2c0.99-0.33 1.98-0.66 3-1l1-7z" fill="#E97A4C"/>
<path transform="translate(1084,192)" d="m0 0h1v30h-2l1-30z" fill="#4D493F"/>
<path transform="translate(828 129)" d="m0 0c1.63 0.153 1.63 0.153 3.29 0.309 1.25 0.126 1.25 0.126 2.52 0.254-3.59 2.26-6.57 2.21-10.8 2.12-1.17-0.018-2.34-0.0361-3.55-0.0547-1.34-0.0348-1.34-0.0348-2.7-0.0703 3.53-3.53 6.49-3.02 11.2-2.56z" fill="#060708"/>
<path transform="translate(254 376)" d="m0 0c3.52 0.0381 6.85 0.433 10.3 1.12-3.12 2.08-3.93 2.27-7.5 2.25-1.16 0.00773-1.16 0.00773-2.34 0.0156-2.16-0.266-2.16-0.266-5.16-2.27 1-1 1-1 4.69-1.12z" fill="#FA6F44"/>
<path transform="translate(495,261)" d="m0 0h2c-1.88 7.62-1.88 7.62-3 11h-2l-2 4c0.568-5.54 2.63-10 5-15z" fill="#0F1011"/>
<path transform="translate(731,221)" d="m0 0v2h-3v3h-2v2h-3v3l-2-1c1.57-5.15 4.28-9 10-9z" fill="#07090A"/>
<path transform="translate(381,161)" d="m0 0h1l2 8h3v3l-8-2c0.588-3.02 1.23-6.02 2-9z" fill="#EF9D4E"/>
<path transform="translate(1546,138)" d="m0 0c4.87 0.453 7.39 1.71 11 5l-1 3-2-1v-2l-1.75-0.375c-2.27-0.631-4.18-1.51-6.25-2.62v-2z" fill="#0D0F0F"/>
<path transform="translate(274,254)" d="m0 0c4.2 2.64 7.57 5.36 11 9l-1 2c-3.72-1.24-4.63-2.96-7-6l-3-2v-3z" fill="#060404"/>
<path transform="translate(1258,245)" d="m0 0 1 3-1.88 1.75c-1.94 2.05-3.03 3.68-4.12 6.25h-2v3l-2-1c1.9-5.2 3.38-7.72 8-11l1-2z" fill="#121415"/>
<path transform="translate(144,176)" d="m0 0h2c-0.805 6.04-1.88 12-3 18-1.96-2.8-2-3.99-1.54-7.45 0.302-1.25 0.603-2.51 0.914-3.8 0.296-1.26 0.593-2.53 0.898-3.83 0.24-0.964 0.48-1.93 0.727-2.92z" fill="#FB6441"/>
<path transform="translate(1054,134)" d="m0 0c4.51 0.531 7.35 2.37 11 5l-1 3-7-4v-2h-3v-2z" fill="#0C0E0E"/>
<path transform="translate(577,54)" d="m0 0h15l-1 3h-6v-2l-8 1v-2z" fill="#0C0E0E"/>
<path transform="translate(303 263)" d="m0 0c3.19 1.39 4.06 2.91 5.44 6.06l-1 2-1.56-2c-3.24-2.66-5.36-2.31-9.44-2 3.26-3.98 3.26-3.98 6.56-4.06z" fill="#000203"/>
<path transform="translate(76,84)" d="m0 0 2 1c-1.11 3.84-1.98 6.36-5 9l-2 3c-1-2-1-2-0.312-4.25 1.5-3.14 3.33-5.9 5.31-8.75z" fill="#F8533F"/>
<path transform="translate(85,128)" d="m0 0 5 2c0.25 7.62 0.25 7.62-2 11-0.934-3.01-1.04-3.87 0-7l-3-2v-4z" fill="#FB603F"/>
<path transform="translate(481,129)" d="m0 0 4 1c-0.144 0.495-0.289 0.99-0.438 1.5-0.782 3.48-1.15 6.96-1.56 10.5-2-2-2-2-2.2-4.6 0.0232-0.998 0.0464-2 0.0703-3.02 0.018-1 0.0361-2.01 0.0547-3.04 0.0232-0.771 0.0464-1.54 0.0703-2.34z" fill="#131516"/>
<path transform="translate(659,69)" d="m0 0c5.71 0.428 9.41 2.84 14 6l-1 3-1-2h-2v-2l-5-1v-2l-5-1v-1z" fill="#101212"/>
<path transform="translate(69,97)" d="m0 0c3 3.75 3 3.75 3 6h3v2c-3.87-0.573-6.15-2.39-9-5v-2c0.99-0.33 1.98-0.66 3-1z" fill="#F44D3F"/>
<path transform="translate(304,78)" d="m0 0 2 1c0.286 7.43 0.286 7.43-2 11-2-2-2-2-2.12-4.62l0.125-2.38h2v-5z" fill="#E77B4B"/>
<path transform="translate(618,55)" d="m0 0c1.81 0.281 3.63 0.575 5.44 0.875 1.51 0.244 1.51 0.244 3.06 0.492 0.826 0.209 1.65 0.418 2.5 0.633l1 2-13-1 1-3z" fill="#0B0C0D"/>
<path transform="translate(971,200)" d="m0 0h1v22h-1v-22z" fill="#242726"/>
<path transform="translate(222,332)" d="m0 0h1v19h-1v-19z" fill="#9C4C32"/>
<path transform="translate(972,190)" d="m0 0h2l-1 9h-1v-9z" fill="#34342F"/>
<path transform="translate(236,237)" d="m0 0 3 3-1 2-2-5z" fill="#000102"/>
<path transform="translate(233,351)" d="m0 0 1 4z" fill="#000102"/>
<path transform="translate(239,242)" d="m0 0 2 1-1 2-1-3z" fill="#000102"/>
<path transform="translate(155,242)" d="m0 0 2 1-1 2-1-3z" fill="#000102"/>
<path transform="translate(1137,205)" d="m0 0 1 4z" fill="#000102"/>
<path transform="translate(1136,200)" d="m0 0 1 4z" fill="#000102"/>
<path transform="translate(504,318)" d="m0 0 2 1z" fill="#090A0C"/>
</svg>
